<mxfile host="app.diagrams.net" agent="Mozilla/5.0 (Windows NT 10.0; Win64; x64) AppleWebKit/537.36 (KHTML, like Gecko) Chrome/133.0.0.0 Safari/537.36" version="26.0.16">
  <diagram name="Page-1" id="_CCca0RBo05e3PEOgxnx">
    <mxGraphModel dx="2284" dy="738" grid="1" gridSize="10" guides="1" tooltips="1" connect="1" arrows="1" fold="1" page="1" pageScale="1" pageWidth="850" pageHeight="1100" math="0" shadow="0">
      <root>
        <mxCell id="0" />
        <mxCell id="1" parent="0" />
        <mxCell id="4zsh_qOHGE946CQNxaqM-5" value="" style="rounded=0;whiteSpace=wrap;html=1;fillColor=#dae8fc;strokeColor=#6c8ebf;" vertex="1" parent="1">
          <mxGeometry x="130" y="272.35" width="140" height="100" as="geometry" />
        </mxCell>
        <mxCell id="4zsh_qOHGE946CQNxaqM-6" value="" style="outlineConnect=0;dashed=0;verticalLabelPosition=bottom;verticalAlign=top;align=center;html=1;shape=mxgraph.aws3.android;fillColor=#8CC64F;gradientColor=none;" vertex="1" parent="1">
          <mxGeometry x="156.46999999999997" y="302.35" width="56.92" height="40" as="geometry" />
        </mxCell>
        <mxCell id="4zsh_qOHGE946CQNxaqM-7" value="&lt;span style=&quot;color: rgba(0, 0, 0, 0); font-family: monospace; font-size: 0px; text-align: start;&quot;&gt;%3CmxGraphModel%3E%3Croot%3E%3CmxCell%20id%3D%220%22%2F%3E%3CmxCell%20id%3D%221%22%20parent%3D%220%22%2F%3E%3CmxCell%20id%3D%222%22%20value%3D%22%22%20style%3D%22aspect%3Dfixed%3Bsketch%3D0%3Bhtml%3D1%3Bdashed%3D0%3Bwhitespace%3Dwrap%3BverticalLabelPosition%3Dbottom%3BverticalAlign%3Dtop%3BfillColor%3D%232875E2%3BstrokeColor%3D%23ffffff%3Bpoints%3D%5B%5B0.005%2C0.63%2C0%5D%2C%5B0.1%2C0.2%2C0%5D%2C%5B0.9%2C0.2%2C0%5D%2C%5B0.5%2C0%2C0%5D%2C%5B0.995%2C0.63%2C0%5D%2C%5B0.72%2C0.99%2C0%5D%2C%5B0.5%2C1%2C0%5D%2C%5B0.28%2C0.99%2C0%5D%5D%3Bshape%3Dmxgraph.kubernetes.icon2%3BkubernetesLabel%3D1%3BprIcon%3Dapi%22%20vertex%3D%221%22%20parent%3D%221%22%3E%3CmxGeometry%20x%3D%22303.33%22%20y%3D%22300%22%20width%3D%2241.67%22%20height%3D%2240%22%20as%3D%22geometry%22%2F%3E%3C%2FmxCell%3E%3C%2Froot%3E%3C%2FmxGraphModel%3E&lt;/span&gt;&lt;span style=&quot;color: rgba(0, 0, 0, 0); font-family: monospace; font-size: 0px; text-align: start;&quot;&gt;%3CmxGraphModel%3E%3Croot%3E%3CmxCell%20id%3D%220%22%2F%3E%3CmxCell%20id%3D%221%22%20parent%3D%220%22%2F%3E%3CmxCell%20id%3D%222%22%20value%3D%22%22%20style%3D%22aspect%3Dfixed%3Bsketch%3D0%3Bhtml%3D1%3Bdashed%3D0%3Bwhitespace%3Dwrap%3BverticalLabelPosition%3Dbottom%3BverticalAlign%3Dtop%3BfillColor%3D%232875E2%3BstrokeColor%3D%23ffffff%3Bpoints%3D%5B%5B0.005%2C0.63%2C0%5D%2C%5B0.1%2C0.2%2C0%5D%2C%5B0.9%2C0.2%2C0%5D%2C%5B0.5%2C0%2C0%5D%2C%5B0.995%2C0.63%2C0%5D%2C%5B0.72%2C0.99%2C0%5D%2C%5B0.5%2C1%2C0%5D%2C%5B0.28%2C0.99%2C0%5D%5D%3Bshape%3Dmxgraph.kubernetes.icon2%3BkubernetesLabel%3D1%3BprIcon%3Dapi%22%20vertex%3D%221%22%20parent%3D%221%22%3E%3CmxGeometry%20x%3D%22303.33%22%20y%3D%22300%22%20width%3D%2241.67%22%20height%3D%2240%22%20as%3D%22geometry%22%2F%3E%3C%2FmxCell%3E%3C%2Froot%3E%3C%2FmxGraphModel%3E&lt;/span&gt;" style="points=[];aspect=fixed;html=1;align=center;shadow=0;dashed=0;fillColor=#FF6A00;strokeColor=none;shape=mxgraph.alibaba_cloud.nodejs_performance_platform;" vertex="1" parent="1">
          <mxGeometry x="170" y="275.49999999999994" width="29.86" height="33.7" as="geometry" />
        </mxCell>
        <mxCell id="4zsh_qOHGE946CQNxaqM-8" value="" style="points=[];aspect=fixed;html=1;align=center;shadow=0;dashed=0;fillColor=#FF6A00;strokeColor=none;shape=mxgraph.alibaba_cloud.prometheus;" vertex="1" parent="1">
          <mxGeometry x="324" y="275.5" width="40" height="40" as="geometry" />
        </mxCell>
        <mxCell id="4zsh_qOHGE946CQNxaqM-9" value="" style="aspect=fixed;sketch=0;html=1;dashed=0;whitespace=wrap;verticalLabelPosition=bottom;verticalAlign=top;fillColor=#2875E2;strokeColor=#ffffff;points=[[0.005,0.63,0],[0.1,0.2,0],[0.9,0.2,0],[0.5,0,0],[0.995,0.63,0],[0.72,0.99,0],[0.5,1,0],[0.28,0.99,0]];shape=mxgraph.kubernetes.icon2;kubernetesLabel=1;prIcon=api" vertex="1" parent="1">
          <mxGeometry x="223.32999999999998" y="302.35" width="41.67" height="40" as="geometry" />
        </mxCell>
        <mxCell id="4zsh_qOHGE946CQNxaqM-20" value="" style="endArrow=none;html=1;rounded=0;" edge="1" parent="1">
          <mxGeometry width="50" height="50" relative="1" as="geometry">
            <mxPoint x="118" y="382.35" as="sourcePoint" />
            <mxPoint x="370" y="382.35" as="targetPoint" />
          </mxGeometry>
        </mxCell>
        <mxCell id="4zsh_qOHGE946CQNxaqM-21" value="" style="endArrow=none;html=1;rounded=0;" edge="1" parent="1">
          <mxGeometry width="50" height="50" relative="1" as="geometry">
            <mxPoint x="370" y="382.35" as="sourcePoint" />
            <mxPoint x="370" y="262.35" as="targetPoint" />
          </mxGeometry>
        </mxCell>
        <mxCell id="4zsh_qOHGE946CQNxaqM-22" value="" style="endArrow=none;html=1;rounded=0;" edge="1" parent="1">
          <mxGeometry width="50" height="50" relative="1" as="geometry">
            <mxPoint x="120" y="262.35" as="sourcePoint" />
            <mxPoint x="370" y="262.35" as="targetPoint" />
          </mxGeometry>
        </mxCell>
        <mxCell id="4zsh_qOHGE946CQNxaqM-23" value="" style="endArrow=none;html=1;rounded=0;" edge="1" parent="1">
          <mxGeometry width="50" height="50" relative="1" as="geometry">
            <mxPoint x="120" y="382.35" as="sourcePoint" />
            <mxPoint x="120" y="262.35" as="targetPoint" />
          </mxGeometry>
        </mxCell>
        <mxCell id="4zsh_qOHGE946CQNxaqM-27" value="" style="shape=image;verticalLabelPosition=bottom;labelBackgroundColor=default;verticalAlign=top;aspect=fixed;imageAspect=0;image=data:image/png,iVBORw0KGgoAAAANSUhEUgAAALgAAACUCAMAAAAXgxO4AAABLFBMVEX////zhSXxZCj4vSD4wCD5wyD5xx/3tCH5xR/zfybydSf5xgDybif84qP4uAn967v1lST1nCM5OTn0kCTxaij0iyXwXin2oiP3rSLx8fH39/eVlZVLS0va2to+Pj57e3twcHApKSlbW1uGhoYyMjLk5ORjY2OdnZ3Ozs7+8/DFxcW1tbWsrKz1lQ/yb0D60J4gICDvVBXzdzn4tYz96N32pGH84cf97tX+9ub3sAD98Mf618v5wKj0jm70glz1nYHzeU32pI76z73wVwD4tJ73qon0hlL1kGLwYRL2nGz2pHrybQ/zhDv1lVL2nGH6yan5wZn3sHzyeAD0lEP72bTzhAn5vYP1nT/3rVv2q0f4tnD4vmP60Y/5xHj4v074vDv6zWT703/5yj/84pQIHdlYAAAI/ElEQVR4nO2bCVPbSBOGnWQ/spCFEBGykTQajW5bEuBw2QGW7GZJcAJZLptwbbj+/3/YHh0jWZaP2PJR9elNVQD1TPejnp6eMZUUCrly5cqVK1euXP+nKoUSxk3yEyqtb+/8sbvsaffDzvZ6adxEPWl774/ld+/evQkE3/4J8OOm6qbSzoflCJrBv/nzr8lG/7j7poU6YF/+sD5uuvbafdpJyzvj5muj7Xe1juBP/96dxKSX9jpTU9WWJ4+8tPe6OziUy8dxgyb16XVSkOCnr58mH65OGHmSu1arrX7+ur+6+nctYVmdqL541IxXWz0J8UpH+wn01Qmq8+3f4vr8tRmttPa52T4xN4DSfkRVW/3UmtHqXhy9tjYGxlTtRVAH++mbb/tLLTZoQsp8/fNMqIMv7Qq49PWAjfptfzKKZYchHey333ilaNjMzNEI8dpq/ZDxdNx2pbWI/MskpPwo4ulcu6UvUcrHewyVSuugb6xQunWLbbY2B5/Gl/L1jztrX/8BTc/MTHt/DrvCrM1MT/tjv43pFCodrf1zeHo6Hdfpcddp1UM2eDy1cvxtOkU9JPGEga+N4dN//TANe/qkh7LdZIu0MfIiX984TeXubfHZ3CejBt8+azxJ1VlP220jHH464t1ZT6cGbfREcsLAR3tfqS+24270ttuOw/U6Hempv3nWNuGN3kDqIXijPmTWuCpJ7sUni1Tetz8LPsKMl64aizGdbZxvVunzyubxxtlCbxmsMxdX1ZH1lXqMu3F2vhm3bR5vtpvWxkdj4fzjaNBL3xcXAi0ubPTG2aKVxgJz0lg4GUmhx2IuXFX7dHK+0KT5Xo7bQbXEwjU2+nZysZDQRiVDxFTVl+ZDXfbv5XI+oaXvfRZdz7qKgg1wWjeS4EMnr35nkVb691JZagGfX7oY6rVl81WoywGqcmXJ1/yrmJbOs8NMCZlJmPqKp/OLV0tx8mEWyzkLk0XvLVXP4+QD7PauugoDXWaUnuplLOXDO4iqF2GQi8wa73VEfp2VzxZVr38PdN3vodnB5++XmTltCXKRPXhh85KRD9BiO2sYGS8Ubhj4TXZOE7piq5rh5aLOwP/NzmlC/74NlWEHqPwInWa5js26YeAZlmP1evjgK2+HEGMU4BUG/nYrO6cjAC/8iFKe2aeWl7ehz+FtzsJjlPKXWfmMNs7w2mGh+v55qPcZFUvllrmczcZjqu4i8ufZ9PIb5vF2mJ88K3MR+PMsqmU2ysRdBu7a6z6W8tubQXNUvYm8vR9mpUDKH+aeRfpxP0jWq7N3c8+Zr/eZMaZr9lmzbu/uZ/vS493ts1gS5oabcND9XDP5XN9q8nI3bO5CNUmejYb+yywgv8ue/JfMzrOO5Pdzv2SsoRd4QP449b9MNSJu0NbDi+yw57K7avag2YepXwfSVKi74d1mU1V9vHuYejE1kF68eLgfaboD9K3Z+4cHGr4vTT083D+OAdtnr2xtbb3sT1tblREXSa5cuXLlypUrV65cuYYlge/tH0cbRdvmBw4iSD/hhLel9iZLkzXL6e7MJirCxZ5jxiX4QTxiXlPbwrSoqFvtLARxVMi0u/lQOU4v9wVuE6SUy2UFEQjCy+gnwMtiusHiMIepOA63GRJK5LDq9FUqLtZNWFHeITpnZQNuKRgTG4rPljHqnHKDcKi//yfgcsgNvnVULRNwCWNkBTRul1KRTI70HK8ptooj10Y2pSJDfaRl0TD8r7xkMHMc3JCMpvGCEY2DH6R4PQmi0ry/IvDEyGaBUWgHDttNNRLPLNE1XEI02IS8JZtEcwxLdAqSqCGsWiLdm45GTNmSbFEToF2IWsHVYIITYHlWV3LEIKKBEjFCcMOlI0V/t7vBaMG1+MBomprLF5U0cBdxWvKZqhON7lQbUoy9dkOQrhWcMt3DehnwZL8NmaZeBnBR1zWs03FeHfN+k8JE1bHv0FYSixqASwSXkcopyFsPwgVGguhrFqkR6ZzppIJDn3BawDHCnKmqkqECqgkc0HG0QtE0EUYEeiZMwiqB1oixQsFpW1LBiFWaO9O3eo0qyI6SiOGDG6ouSzTDiKNvTDAzArhh6ib9IkLsjuC8qPkyCjQmPBSokdDMiB44q3Eb+OkkW2XgiJYVwdDpCo6OVboTHcTANS6x631wUQ8WwsYUtRncUmTf6HQBN5AO4jhFAnDO80i7nxSMioPDHH+vFUNw3QOTYBQPK458jy4DF5U0cAGx41PDbgI8ZiR6GriFAwhDJiBE3x0S6W0X2LjEHyXFMy7IHDKCEJwPrvjDKLgAk/w+Ae8d1ng5bOJxcKOshZVv0zJuAufLWtht0mvcRhzxpxsgicNQWNBopMAWtgU1Bk4Xwn9MkZPgBtvt8FoBiqST5p7ngdtl1iOlspYAL0bG9HbIm9GZBqg6XWzImZdRyLgcgCcz7nPwWis4n5JxnujNtRJknPWaogKnqRkHjxnt1IzTSlTDW5MB/QAihOCGGdaEq6fWuBTWeAwcmkpwcXBYjUNCUFMj92scm2EZi5xX4/4Yw6SlgqMNkFrj3tGJXUMQBL4IXVDmI3DaTQichwI0ikRXUW2YIEG3bAWHlyRFsNKeE4Lz8K4huaTZYVdRgrtGEdMDSuas6C3hsBX9hStyqV3F62JYVzVXhP7LeTlg4FDanCq6st7cDiEHGGmWGPXxODiknEOaq3lXzjCIoenIkXiel1xVkVkf50R4Ztiqd+O2OdXmBcPG2O/jimd0EGoDXjAsetLRVuidB97JGaTHhpMLmiSW6ckJ4GDx3lXWvQkm4fyTs+wP13W6YBLxrJiYOgMv8C5WVFmTVQWJRnhyFk1F1TTC+d2X3lNlkeim6p+cntFUTCu9xgv0g5QF56RqasFNW5StsAlIIliILWky3cEGWPx3dQhMsAxHJrSSZOKPlmXX6/8uTDJdw5Ljt4miZSKETKsIQwRL83eRC89UzfYrRnAI/ORKoZFOgCAGaTnbI3SeSmA/Cc0W9iiy+OMFagv+9h4KkTX2vDWIIMSeRdGCeQljjx+Hc+XKlStXrly5cuXKlStXrly5cuXKlSvXqPQfjh+giHUWLL0AAAAASUVORK5CYII=;imageBorder=default;" vertex="1" parent="1">
          <mxGeometry x="720" y="428.5" width="112.06" height="90.15" as="geometry" />
        </mxCell>
        <mxCell id="4zsh_qOHGE946CQNxaqM-28" value="" style="shape=image;verticalLabelPosition=bottom;labelBackgroundColor=default;verticalAlign=top;aspect=fixed;imageAspect=0;image=data:image/png,iVBORw0KGgoAAAANSUhEUgAAAOEAAADhCAMAAAAJbSJIAAABU1BMVEX///8AAADO6PoOh9YqtN6AgIAtxcza3t4xpiXJxL3U7//h5eXH4PJiZGSRk5Ph4eHz8/MXFxcTgCJfY2jLICdYY2rvoSTfjBFgbXVVVVU4ODiNn6sfIyUNf8kKYpvT7v8EExgrueQYaYEoLTETUlUOOz2zr6jSzcaswtBwfoh+jpmbrrsmqK7Dw8MHQGUhja0ptbwkmb0Mc7awbw0URhCBFBkfaReLXhVLS0srKykwoyS1zNxycnJMVVwfHx8/R0wqjiANLAozOj6ioqItmCIkehsJIAcQNwyJiYkGEwRaPQ6VqLXMiR9xTBGFlaFERETAHiUzCAoXDgEwHgQjFgPQghBlPwjCeg8aVxQ0sSd8TgohchmeYwwdYhYLJAhPNQzdlSEJPxHSjiCqcxoEGgf8qiYFLklqERSmGiBzEhasGyEpBggTUmQXBARYDhFICw4JU4S2v41uAAAMh0lEQVR4nO2d+UPbyBXHLbcuVAhskxhsTKvduguWXfeCEBxhGwwkpCSYzbWBnO0u3ey26fb//6nSvJE0mkOHZUuiO99fsGQhzUfvzbw3h+RCQUpKSkpKSkpKSkpKSkpKSur/VpVKuVyxP5TLS5WsCzNrLfWODxobiqJUe4VKw/rb319e6ZWzLtas1Cv1FU+FA+/zcHnr1huz0ltW/Or1/dsbx7cZcqGkMKIJLS33si7olOo1WD4uoVUtj7Mu7BTqbVAUz54ThI8f0pC3jbHss9+LD/d3Xq7vEIS7Vw8OT3eP/NbNutBxdEYU/Pm1RWcLCLeAcNHS1eLJm0fEkY2FSsaKytcbeqV+tbPuCAirikuIdLJHMFaz1kFMAz67Xie0Q6B4hJYpT/3emqkiIC7tu0ffX1+PQmhp9Sh1FJFCAbfdQ69frkcmXFw8fZw+DFehVdA58Pk367QCCRcfvM4Ah6MQwLJz3DXD5xAOUFPDEi5eHToxclzPRK0ohNiEL1gDuoTdTQGhZcZd+PeBmolqUQgXsBV2QgmveIg4ONZVVS+mrgiEC2crlZIIcecakjZMqDzefXNCm/AIjqhqTaOZR0LkoQsHHMSXb//m1WRMaOv9uxMeYHtge2rqVgwlxA7KIn7z9BnZVhGElh6d0oCKOUB/DDVnhBWnzBTiy1eKX9rAv/3+9IoHqCjnKSOGEXqZjA/xmuKzyq21qF1Hhx7g0PRugJmuo4YQrhAl9hB3SP+sDoxmW7NL3e52amOS8fUJBoQ6iNVKFTCEcIEsr4dIarOouzFA19Wi2RywB5m+felWxWBC6M8/c5pMHuImXVxd1zr+Q6rmCH/CgbGdpp8GEmIffbLGRSxNuIT2SYvNqnfc0HXRN6vfob+p+mkQIW5H79+scRD3FwoNEaFlSM1wLegC7q2u4m7xxeyMqCNNSQg0z9dsfaAQ7QEmDqF3Ld3EAdIkAFdXcYqqzYRO1drtdteWJmYMIFxwfBTJZ8UhGrhnCbVm0y27XrRP7dXBN6tI0F+cSWOjEvVdXLUDCGFU+9XNmh+xvLW8AkM7DKGJbOZu6t2aoQ38gI6fzsKIbQ/QatLjE+I+4ce1NT9iwz2CJoRz1b27qavqOemiSEezMqJ+rhAyRYeJCaHCPb1xCW9wL0JIqKGvB75SGDTgDI1I2nAKwgptwrUnsOdARKg3wTq+GoFL8XePEBtxBs2pWk9EeAwm9ADXwITDiohQHXMupdcFRhwnBrTbayMBIaQzTzwfvQ9n2i6ICE1+ySEhf0gYEcJ+ewaE2ub0hBAqPngW/AgnWimICPUO3/sAXHntEcLo2wzaGrI7E5sQBri/9QjBhP2CkLDIc9KiF7UII4K7JwYskh2Z2IQo5yTbGThPT0wIbcqIY5kWbcRHs3FTX4clLuESOKkXKt6iHY2CgNDqN0Glb7JNJI5bRE18h3Z0krWmTks6hlsrPo5PeEw56Q30eRd4hHpRM7vneJyGexEw4h7lpq1EFdFx/qGGPsXO2g4oJ33CMSEmLJJd3jqv1DhQEjHxKPi2U//OLXfT8U69qJrt+Jk3mu584ZkQxmW2OIRV3/BMh28X9N1jj3A3RkVsd82iqlIdJLWLLxjemeYTQkJDhHuI9hUOIaV6wEU8N4WgHyWtQQGhOq7bQ0FeP1B3ErZuuKfzCWGe4q0L+A+0vVwIJ1RGnIRThzu+6xK+Qdu1CMUbEaceGE1TK1rm1HGMVS4iVGU+ITQ0XkLzLc9J+YT+zBsLcvIjKq0Zh5ZP7TCnH9eMronHSCIlDXxCiPcfnWBx8xRtLwkJx/uDkbsKhVcXoTGimprNsP6F7us9MIrgA0JCVPZn91095x3kEk7ugCZ4my04Dpa7rt6jbWGUxtJ8MwW0bGcJqMnOV3xC3vomOla4hIM7jnDYYEOGv7PqKqQxdWJ6fUAPp9sa2+dtjznf4GKZQYTcfzmjDsI9yMYdTzAHUGWNaHLPGEzojA8YqqqZ7Yv6yPe/yMX5p8VqaXEJ6fVbW3CeO6TArbqM80xDCM2T0x3T1aKmdTt1x3Ht2Q+dbYhImQGEvOF7hV4YC7OmDR+hcAZtxDtjcEszIsuJMXVVVc1uZ2CgJEY3eGelbqAg4tOrR61+E7M8DVzyjl9oH6eRM1nEVmA+4pS+yZ5Ld2ZKQmwYRFgobPcosWvDUHM05BEOOKVSu7S0oMbeCRSBEQET/pHRP8NtOFEYMcsoN+IQmpyGn62uhPAxAUe4hL/5Ba3fhhKyTqrQXScnWET0Ul57HxAPcbFCEusEhLziMEaExGfgA4S6aSRtS52+UUgnedaEJeqgONGCn34JCfENGQXyJSLk5jQTurIqjBGhwWQjvt7knVBMiDOV0Lx1ekKoYj/cc/Q17yA2a8PLGthwiPPSPVcwFsWvh86QT3BLlJAQqtjlXUffo2065DuZ9xgDOjki59aDcd0lYVeIkDdfpKtaGwNyR0RmRQj9w08u4Se0Le4ftiajidtacrqlkIA98hZKoeWKdP/QSljMCzczaPlvlM6ROj0h9PHvuYQ/om26c8HvAdeE44l7LuAJHEkQ2mlnk5xpoQJFm0kYbNWmJoRG5D8u4V2oiBHGabhdfHyRQ5cQhhPdsVXdyjUNqh/k9wRuWutoGkJoTD97hD+go47DCQ0OIHbShw9cwndECfRiu8MC+MbO9YsgwOkIod9wSbnphEO4Sd77cZs7XgoFfE0vOCU9mOLzr9J0MpxZEkI09yri3X+hHT0OodqtQZxv1dqCZR/w/SFVDcFMTLYzMqycnBodnQMhzFt87RHeQzv2eYRWA2+abdOky+WaEML9kWdCGExEKZnfAVv1rqmzp5kHIZ578tz0rsIaMWDFECk8nnTqEcKQN4r3etctaK1pFvk3CQr5xZ8Y/TsBISz4ukcbsRqfEGco33krwB+AvfD3aFhg3GkHLALHhL/8ktbvEhCWaTe9/Iz2lOISOl1ZwoQwpu/mducdpuIJCGklIsTz+J9oI5J+Gs2G4KNELYSExktKg5elzY8QEjci6OOoT4x8RyHUcSPhNaSLp2jHKMb86HwIcR+RaGsuYc9yHEKnIXlHPIcBwZAzWZw2YYkxItTEaixCg6mFkLFVo/PNjRBCovIj7aVT2ZDwUjChYCo1VUI8LPwTBViNVw+LNQoRaqFwDI3XSdLnRYgXJ37yAxLd4GjRgkKEDcEQk641OxxdjOdDiGvi50sC0NfPj5jTOIirduce1kNx5m6QAmda5kCIh5q+FwBGJXRX9lhWPIRPgoY0OP+cAyGOiZafclw0BqHnqA9gDbQoFqrcceN5EuLJl88/cQEjE3qI+HkL0Vh3BoRl3yW4Y21RCL26iCSMFBkQOn7KBYxDSCKOxX0IRPjVnxn9fn6E3hwN7aIxCQnEgPkYIPwVo3kSFpw3RXBejRSL0EUMGMnOhrAsBIxJiBGD0rVsCNHoMMdF4xMixMA53YwIC+UVwSuf4hLqXSN4siUrQqHiEob25m8/YZgkoSSUhJJQEkpCSSgJJaEklISS8OdBGDIlGP4gXe4JfevSGFXPQ2ezc04Y8myAEv6cU94Jg0esbYU9Upl7Qs4rsPwKc9O8EwbP/ikRXoWRe0Ld7BgBaoa+sCX3hGgds1jhy0tuAWFCSUJJKAklYTih/ahuPPmnanJPqBqx3+g/9D0Em3fC8MybJ3JGMe+Eqvjp/wCRz2/lnjDw0R2RjFtkQ8GDoiEik9XcE+qmUYv3Uv+a4Xv9URjhl1kTWmeLK+rpHyD8A6OvEOFfGMETJX9l9N+5ESZU+ChBLElCSTgPwuBn1OIq6P00GREWzWFgkeMJr5bPF2FR7zZnJedx1pwR8p+3mErOGfNGOHtJQkkoCbOXJJSEymbs8bWUVUxKeFskCSVh/iUJAwiX865+QsJhZSnnWk5KuLSQb0lCSWgR5l1JCasredckabS4JZKEP1PClfDz5kb0b3NEFPfV7bnUPv9Z7XAtlacXauL6W1EE1aGS4GJT8iUTem9Kf/vX4doGwkxKmUSSUBLmX5JQEuZfDSCMogT9n7mpvML5DZA5q39G/wLH/LTE/QWQFLSfEmMvIz5bzG/FzEPbGQKmgljJFJD9OZzZq4Sv1N9IWfi69E+pzFzYhP2DUuqapGNEeA9h/yx9wNIZINK/gDdrgZNmYEFLB6m4KYTCTABLZ2iaqR9eyESCYWJJKAklYfaEjWw0TI0wU0nC20+4OWfC7KdrppyEia6sp2sm007CRFeS6ZoZaO58UlJSUlJSUlJSUlJSUlJSUinofyqWYX+WBRRuAAAAAElFTkSuQmCC;" vertex="1" parent="1">
          <mxGeometry x="810" y="437.20000000000005" width="35.15" height="35.15" as="geometry" />
        </mxCell>
        <mxCell id="4zsh_qOHGE946CQNxaqM-29" value="" style="shadow=0;dashed=0;html=1;strokeColor=none;fillColor=#EF8F21;labelPosition=center;verticalLabelPosition=bottom;verticalAlign=top;align=center;outlineConnect=0;shape=mxgraph.veeam.linux;" vertex="1" parent="1">
          <mxGeometry x="340" y="360" width="29" height="22.35" as="geometry" />
        </mxCell>
        <mxCell id="4zsh_qOHGE946CQNxaqM-33" value="" style="shape=image;verticalLabelPosition=bottom;labelBackgroundColor=default;verticalAlign=top;aspect=fixed;imageAspect=0;image=data:image/png,iVBORw0KGgoAAAANSUhEUgAAATYAAACjCAMAAAA3vsLfAAAAw1BMVEX///8AAAC+vb3qIie7urrp6enpAADpAAr4wsPpAAT29vb4yMn5zs/y8vLGxcXKycnPzs7qGyHn5+fX19ftUFLsQkX+9fXqFhzuYWSurq7e3d3Ozc2VlZXvc3X1qqvpDRX2trdDQ0P73d785ubznJ13d3f97+/yjY/sSUzwenzvamxUVFRqamqAgICSkpL61dXrMjbzl5j0pKXuWl02NjYeHh5gYGCgoKDxg4b3u7zrOj7rMDTxiIkwMDA/Pz9QUFASEhIJjZjdAAAMu0lEQVR4nO1da0OjuhZlaAktLW9tLWjr21FHvTrHcXTmzJz//6tudhLe0EJLQhu7PmhLIMDqfobsoCjbCFPzAt8JbduybDt0/MDTjK6vabuhBaHax1AzgC2WE5hdX91WQvOtmK9+Gsk2e09dFprD6AHBCkEvTdPAMInG2ipjD//198wxmE5EiuV7FWbM9HyV7aUGe1OnKJ5F2bB8bcWehueodN/ws4tcQIjoW3UlyPT79IBVHMsMQlq/38xeafbnJs4jpKlB4wMNnxBnf0YbZ1iENG+9oylxfruXtAMIiHFvLmkxCHHq59JUKmqbCYsBNq7vtHRFuwAPbtja2DR5ROA+jYVzgLUN9DNBCD2taR53DaCgm4sahbe5su8GDLVVi0S6C1vrblthtqagEUBRrTY73EIQ1lqOGnzpeSOstZ6HB5LzZvT5BAye1LzxYo3yZvPoeBsATo9TcIr1VNY4xOZh1yJgvyBn3BvwvbGQ54/SHUzeamRhG8Cz/26g8jba4HCkGw9xsA5xPgV2p21H0l3DFHFLjnRqim9IQL4tWxQCXlTAaUBNZRq17Lc86lEFSyqvALm2kBOZUombuAg+lEjchAmbXOIm8jEJTnwlcaaaGDfawcm4IhQqANI8ARRrbgIhgTV/4BhU5IC1IYmWhoJC3QiWHFoqOiQIpAjdTHFBW0cn5AIc6woOpKSIeEPhpkb8GTmA30O+KgQyJAri4wGcKJCnFqYX+KHFSpFUlVTX7MqzLVNs1AaAZzFQ+ZEveYuK3qoqbbYJONgVHg6QKejFmrd+vFF1tt34iXek5MEFqXlzfE8zmWgZhql5vmPFRW/h1jFnaIHv2BY2K5ZtCc4RABaIU5UVM4Oocqvvb4+2GgWrIj4aWFntbAa0drVvb8VzVSOwkrrQGFtxaXkYUZFc51dHa8hImTG4elpHi/V1W52+6VDiOr0+WheKTe0OVWazmrfuMn+TkmZvnXtaBUpcR5dNxX2LPFN9GKSSposZrNpuVymaKodZ/6vh73ylnd9BCRKxap278c1gqoIVVZaaJ1toaQNhTXj2xAM+t6KJIghrO66gEUiNpRjeVJlmtZuieLNkYo3yJkBPfdmmZhPeeJ9EEzW1VBxMASVv3As0OoDHfbK5L8kclSx4Gx5D0pI6m2+5jiNrwTBX2wPCJlHskYLJU418Cf0Bg88xCpFW2BSippy8qSfFJLIKaNymejkbrb227eBWuiXF1LtK8KqlkWOiZzU41dIEHcwjEglOtTS+dEl8Dq3M+IFJTgHAY4vw2xKHHwTBhrMZo7X4YRZR9N8OxE/IFY0NnEJ6Lf7CfM6KY67HowzOU02DUR7jSUkX8+ensp7P88cqCu5wUH35k6fsAYML3MlLad9FrFu7w1bvJjOIVNvxfayjvu9Ei/CX0ja5cdFQzwChuzFrHSE9D4SOLnJ9XC/0BbrM9zy+Q7mjEe4Wb0JlxAPmh7kj0EJR3n9eXs5r3f56lWJBNOPQLq7Fb2iB3S+j7RIt3F4BU3RwTZpHerERt75nOzmY4q3oPLNt8h1Nc8ctfuPtCO9ZTtvY1fOXgrCc3Yxe5jf1GFjDl7Jl4tUla/GXeIQjBDQs9GEK+gK2DQkLQJs7LLSicbqTOXTSc/+X3nauA2mZjlEPGippu0SYNDd7xC3e/nM0H/2sx4HVdLgyoBPVmk7nO8IcuOhuPhqn8H7jks2gipg29+Ap3Tp6HuJGN9XJNYLb7fX05/Q2zMFievOePpLodhVtwL2Lvr4M0kdAw/nJ6G5cckAJ/GYRL11X3mo84gSXujjIWyoFfnl8Dx8Kpe0o13iBJRClzPr3KZa0OWxMejrErKFnpQQVtF3AGd1yes5Lt5YgKgqpBbpQ9zoTWvGlTvOkUAxw0/C0nDblctGb/o6/nSJig766lOhkW7nDrKANuO9VuYq6MBrkj3SV7nXGNrGEuL2KtucFMValtI313vQu+jLBOru4peKiR970w+0tKsx4OW1wNKotVZWo7xOc9ed5fXd7eqVrHxKlK6XtFNN2G305wqZ/Ch+eEzUFa4cq+i2n7QUL8EnDyy+BVTcTgvX21DWTJriD66rGk2lPfy+n7SNFN2gzIqZb+YXV9JBuTItjyUmLtOGzuYcHBXxUXl45wnqudKPFvidgvypbsQFbzMtoO4coLb5z7EEjhp5ATV/gE9b+Rak/UKpoO4DgowD00vCW/FpPYsyN1tAH2vTK1gxtJyiFtJO8wxTqEQs/F0x816OtwNv0a9NbCuqkV5suW91ASV9QJniPNHAEXZzGx0yxmsKtrqWkvY/DHH6VhEbLEdR4u8/Gc5TAJZxWNepZlzBCNPGZ4pQi0R1wB9+TY57wQcM584sV/XJ1CTVqEzdftnpVAPIrHYBcTEmK+fv2JklIb0ErJ7ex+pI9QIC7CkBq0NbCstXV4e6oGO5OPsD836Z2GiMqXL1MBu4esHB3VHVObuEuWRjSXmq22li2miZXJeYNTBlJzTOe9Ajr4OIwuTeXmbIxmsYAfzFnyVWpH1yaXNUcWKsETc3DamkKWpmcRFP5k9N0rj4ePPf0dCqfyONvEM9FpEvEcRKrfXkSg0UnJJXXe8+ZMQKSm4P7zm0lDTSVP5jn2hoSySoAq/yC0dJUODpwpOeGhlwYU4sGjtJx2ym5t1Py+SmdTSXAIgheggwcZYeBhkN0QmjrZbeyEaKSgSPcUK7pS2A4S94sZbU15Wr1MGUm3B2TqI3k8b/SuXuCAYtJrg8Kw5RkuAkVz8Yc02haGKZc3BZPsBKkcrFUFYP2HkFflw2KH0U/8gjp6Ht694sejGp/nSg/4X+Z7ztC+pCEg+Oj/BA3jAv9Lg6z64ip4vwjewRyS/qvgaAiT2934vLFeJBB5hHMYJAdBJu8403vI+W90JI6JOrifJTul/4WT4MCEk2cZFsbx7sMZmnSyXM2lySw+8WyMtlqC3jAKfDmyzoFt1X4+WBjL2y14Gc9gNSzItuEk5l1a8s+dag1ZF41I/esyFaRetWM1+Rh4CeHlqips9fR+kjqfuSfp9YmovIYWRaSFoTovQ9YXdtai+LLzuBh/ZtkQW6LS6162q5gg2FsVmhW7wnqHhEMGq+Fsk/4bhs0O7D2jrQZaJy7p60haOjB/y2OsoHM3trT1hTEie5pawoyw2Fv25pCg9JG6SvOWocBxTFOpyPi5tJFrM1NwnluILR1WBaqfSMJ4jcy8uec3Z9lsjz1L21lG2d/788YxRbeFV9z/58zwP3VTDC5kM17HazKT6FmMmsL/08Nlxp/4tYrsuERf2K09fFHfM2zL7ldRAFo6+DVGRQBIeyNSNwbpS01FPOKv74+vj1A6w/YcLyMti+vAi+cFnl0Nd72L75b+MF8uO08bQ+xCIHUwQWW04Z1VZvF1IoBsW3Ny9jaAbB1Tz59I4RlaDMSATLZx3LavGiXL+IsjUmS0oZlbG3hkUkRZuHv/V8rS9uMKi7BDypUldLGdt9g5LEhqDfoaD2P+0hWGDK0XaXE5w1/ni2nDcTtj6DrJnIGp+1m2dx/iUVLkKENYo8oqgCH+7icNuVLrjOusClfficvQc3faYa2s4QjxaEauD20scfxRieP5f+rS5u1ZbTFRq2TN2P/SekhIEPbj5Th61P3cJzs3y1tsQvlt1bZEoDVp/MpTB9esZOh7ZHFdKnPxwmTszxtvsjALanf4LZW2RLMqKVXolAkQ5uTSpheqSTNEiYfqOAltH2jzlYItCTwMDtYLtGIFetfIkdWLH2A11i2ZoxBM5EoFgBDCwkBHkXqqJVa7C/sYM4z3Oy9oWhgx86Y5X8DHOMoOAQm8CUZELVRmwYi9YA/BWcsUCby+nZ8RZJSUQmimc5F2yqCaYR/kkzco7QxgFC9JV8jIXxNthAFTqfyolQUhC1FVDslVw3xjd3zHzhzjjbF+o99O4tziatoB5p3JbRdCbt0L+c97S7ma3lvV1cPb9RUaFYM9nM6x0krhTl7uLp6jFysR3a2hb5ntKCV6n6W/WoUfYCI1wTsOspMmbfnbQW0UsdJKpw7uJpdgVHxGixf6Ouxdg1G5UtiRL4ea9dgLHmVU7DRsjMyQ1u6tIy2829+5INgxYI8Bln5dF/wl4W92nqRlQiWLH3x+UDe7LfSV+74i23bhmnXXQhwh1+j3DboMiA1FwJkL+0OP7uN0+yGmqdZK1crlh2mr65a4qgElGm13w+DbZycxxem57ClwcPGN2/40arifcsJPM00CrwbLcJsjBarsLwYgR9adKl5ULb17DsIKlv3v/9JEL3VYEMDZYC8Vr4zQUIQ7pxWLJOJZdexLatwDqsx7MYIq+A0hl+BVANYo5V8/B8Re+vLaU6xcAAAAABJRU5ErkJggg==;" vertex="1" parent="1">
          <mxGeometry x="80" y="180" width="95.08" height="50" as="geometry" />
        </mxCell>
        <mxCell id="4zsh_qOHGE946CQNxaqM-40" value="" style="shape=image;verticalLabelPosition=bottom;labelBackgroundColor=default;verticalAlign=top;aspect=fixed;imageAspect=0;image=data:image/png,iVBORw0KGgoAAAANSUhEUgAAAQMAAADCCAMAAAB6zFdcAAABUFBMVEX////tISTwHyT///3rIiTtICf//v/8///8/PzrISbuICX//f/xHiTpIyTtISH5///7//v3yMvLKCz/+f//6+j/8vHrIyDnIyb/+vv85N31///TXV7gHRvsICr9/vj2//vPODj/4d/IRUf86ezXgn/TZ2fZGRb/6uTUGSTOMDXvvrv/+/L/8ufMOzn/9fDqExfQO0TVe33vtrj+4ub41dj82djilJjLUE3MNy3IJyPRU1fYc3r25d/yzMfIPUjaGCDnq6fXV0/ZGy3MGxnln5zxparvyL/Va2bmj5PRTVnBNjn3//PqionieYPmqrHHGhfDY2HjsqrFUlXOfn7aSknZM0D/1MzkbmrvoJ7/xL3thnjAJTHeDwvsm53+2uO4Q1X1mo3Iioy+FQC2GB/kvMC9OjrxWl+0aGbkzM7aY2q7WFb01cnhopO3ChvTinnOal4B3M6FAAASXklEQVR4nO2deVvbSLbGJZXkkkpSSZatxVgW3pENeAObGDfIwU5CaAJJhiw96WRu356+M0z3vf39/7tVMiTYhjRZQA7R73lYbCwjvT51zqmqUyWGiYmJiYmJiYmJiYmJiYmJiYmJiYmJiYmJiYmJiYmJifkGEUWR/kgwDAAgQSC/T576fiAakIuHhA8/vi8NRIrneYA5twMmfCR+PzIkZB2A5R89kCptbCaTyc1uIW2KMAWXdTkBoz67W4LYvlPqdnqVrfV7/X7fyB9sD8b1H1YdWYPfgQbE2IGnJ5ydwa4R2LYkSJKELZZ3g/7W2wKxj0TUZ3jzhI7ATA7uVZvkyi2W5Vme53M5FgmB8XyYdu68HYhA07zS8P6oqkrsLLlczt8druiaBsTQYO4moqjJOxVD5QXBntMAK9h19yo7sixTDe6kCDTyJeTk1siWbIRycxoQVAuNtroiFO9qnBT1FGh0ilWkcBKP5gXgeUlRODYoPmiIjncnJWDE1BIYGzmFZ7lLFAhBHEIK7/fMpbspAdFA/8lwOZa7QgBqCiqrCJZlPHDEu9gWSH9Ar+ct0hAUxPNXaUBAPImSD7w714USRQh+9DYPAuVqG7gAdo2HKU3W71SAJIadWko/wli9lgYcb+8WdBlEfdpfFZIcis5+lVM/4gsugFTFHTQS8I6Zga7tGKytXhUQZjTgkdDvaPJdcglUg9WBpXBXBsVZhBx+XJLvUmzQoAPGPpHgEzSw+j3vLiXMy5rcPcC2yl8ZFC/RABsFmLg7PWnSE+z5TeGa1z+B54IeSMhRn/pXAzAr27ZyvdzgHAmrWVP2oj71r4WoOz3fuq4rOEOwFL+T+jHqc/9aiCBTmx8u+Es4d9u8MymCCMfBp0tAMHaW74gGCcYsutdLEGdQe0D8hhNmQAi/QwbAzcC6blC8iI23HTmMjuRdEgwECfJ230TKECZ3VILJD91ZZsYu/rTAeGYGuJZmHMdMZwqFdNoEENKhxm9EAzHUgHyGCZH80DJbPPuJUSGEU/zDt/tPKtutfGt3+9F4p6Qvad+MBnRCFZAPzXGI+coPRso1O4zTYD5nuwTLalqW5QZG9o8fZGbxR5h0HUCdgYxjFpKdo6OjTr2bruDPEOAMOvgoCLQlIY53j9tdEeiL7iblhAZTZuZZOdva8yn92n37q2hA/AOrBK0HDW3BE2hRBl6h3q75vo0tiydfqmJZnxUYL9HA5q3AaBeIu1nc1gBAAnqZwSiQEGIx6SiT3rIksJ+RI14AoTMJWF4SOCHnt1dleWFnJaEOEule0VdV7gs++b/AloyxuaRHfa2XElbUNDpPfdv9nHzo2qhYMcaet5ADCyItKhrWcgrfvPZo0ecgqCg42FxMO/CAszZ8YTcx/oIocD14t+wQl7B4PkHWzJ4vWDcuAEFV9+qyCBeuOYgikYBVbIlw0xootnKQ9hYtTYCiBsZ9S1EEJF173PQLNLCrdV1eMDuAop58496kK7wIp9huxYSL5RdFUe5u5W5LAhY3ObZWWDgNSu2qIl1vQvUraECy8GqdWaSuEx3heRZg5eZyw3m46hMPhkNViwGEcqFF+gbsjTvDC1itLrM4GiSWl1Ntl/QN+dtqC6EG1foC2YGW0nZqNDm6+aB4joA4Kxhr4sJoAGW9HeS4W2wIvIAU1m4vSr+JDp9qhdpnDZl+mQZSdnVBBhbJaUD9gU/6SbepgoAQi+6vwQT991FLEE4m/NCyJPbme4vTWGiv3HW8hBx9r4FooI0lHIEGiuLXemtw2YvcL9LB/lOLvX0NsKrYvP8o2YBi1BMOuqxtHKi3fP0UXlVtHrv5/ZID9Ghn6IkGHZ+zbl8DWt+lKBwfPH+Xkp0oNRB1Gezz+DaT5A8asIrCqmhU3tCirVIAsFFRp8wA0fkA4YMqJHvk2Ek19lxZGmKvDKkf6YAhNHk/lScSSHy1UhLFRISeEcBu3p35fKZPn1eRQsdZhRB2asiV4/n5ayWv4Hk0X8BFrT9Ud+YfCNVyKtKqBCAPff5inkw1sCwLc4ieMxWED5+jp09MBE1LpF4s3iUvCg9CHHtFISN5E0Q+/ek/C0p/B2hRjqyl/uZyyowGtBhTfQ+5SttW7fePL8zAYvdCV5P7cAjPW7PFOxx5LTnWDgs9yW8f/mI33ecbcoS5EjQfN6fPFdElekZ+fT1PMUaBoNjN2vq98GG+ls/7AatQR8BJrH9Ss3MSbRHkqKqfD49Zz6/7udaLvffpN1ZzgnVcW5+QX9/z8/6FBoWxGhxGOQMJN17MJAeId43DlwVCJpPpZjqPRwgH+5n3FI5qQegTeBT01h4atkAMG1mW/zRZyNBjyIGvai8Lr1x83k4U7BqvNwtnx/+0/vfXry5M42LSovIFLUINuv60Bpj1i501eNY85SWw2e7zuHf+eiCnzPq6G2qg7r5bblQCRCu57X6v5IT7ITBQy+RfpJmypZxNN9s4yHYa59cID43yT4fBh6YiSbxVHXvROUX4cDTdcLH6JgmXUukJpRLQzUHw81gT0yuTp8xl+W1A4hsxgyPPA/VjrCgC9l+vyl4jfM1K5jDIEw2a52ZgW1vvRM2kf1pZWUvu7R2O/z6lAQkk99NQjGjyTWSGM9WXOBh4Wqm8VSwWSeMtPk029E3j5zHc+MducZc8WaxswK5hET+KWqbueOajJqvkfj5dW04NH4cvKK77yr2SV27mzq5Tqg4TzLt2ccKBG7z6r1fTw3ZIGh0xoqZFpMF4xoErJ11vYzByXerG1aZ7MPScys9vmc03EqblVa5fhuY2jSVBDzR+yWg7exwJ8UeauW8EgkpeglQV3yuBDxrw6xlQKLqW6tK4QFyHnd+biRq8O3CcyOygJ01nes0yNX4skXSAhDKXtde7S8/+e6xl+kiQEGni3G+OfOqSJCKf0ZK/loEzaFr43jv4rCogjDlME+8zO5h4GlQ91M1K1bKlnETioiRwTTy7UBg3WxtOVNFRfOJeyOjIybnP4GZfISca5kIKkqqv9Y3iH0ymT5JEnrclZcvRK64q+PvLTruaL8n1EbIqDa/i2vx5eT+3TuwAn+VP2H/H/PNXwzD6x8fkq09a0WwKhXhcrUM5ooknOHCnQrUQ1GFyRPpzKs3nWPKLm/Wc7JhogKuUn6tlZm1LZYVWd2mjyPodPd2ycVtvHHDkxfxlGhgb3sY/6/Vn9Xqd/Bi+4BVuZi0EIuF3GNlaQHg6XXGAgx3miG7vcC4Kxr+ZoDJmCsf/Uz4klMcl8aVPsr4ecJ4ESpBdg8O+24YrfeUqDfKFH2XgyQAwCQhAnRyM0HQDRMgK2quRaZC92GlERIMk7FRJP4nm/QSr6W6tikSDbv8kAzyQIkmtV3Yx7mf0zWML28fDpdVXzUFq7R7CvIDCCxKUFvWJdtgv4HE+4znmWqlkhlR4xZ7KlcNDeJuIGZEGIIunSi64oKPt+CzmJt1EwVKCsmdu90DBCHqmmJCh3vipxrFuBchHb2qEf3lgWK2kVu83LVWgS9/IUUorDdpNm37eCsL+7/Df/3paqZyenpJvNYFT2blpPUk6WYlqEnZWA9Yte42tQEWhAiSFE95sgnp/TDTAfrmkOf8eDgxbyR3swMzTn3Z2dpKbptMoFkvgjyrxIJgWNJKkJ9RAIq2MaMAGD5Y2/hPQyOq6VZcXpEv6lJJU21kYDZpbK8zvxUCagNxRTxTb1ddg02hK1THwfn8e5EgnZx+kXh8/pJXdJL9L/PG/SaZ0GiBs0b7huQY2fcSrdrWV1ncMWuVDcmq7adt4doyCaJDbqzMRxYVEZXYkKHiW8upF44x8uSSvnJA8sXtMfPl63WE6xyTbMZJLhQP7UZg+r6XkzMH/eanun2fH7BnBix+YX/pGbfK4/+tD3Ruvh7/2+4ZvI35+mAn7QyaibhOs8NOrM1TpoKuJG8kzNhsaGFcnGnAWPnioOeN+06qY+riqBNvZbPbP7b+Vlse/djSYPj9o51WrlNqo75w/vv+fEnS65486J9wlGnBBdBoM3GkNkCptJz14dj5gSV/ZH+Eq6S8QO8A4OEhCZ+j3k1q6RnNCgmuNOlr68a/DVWYyjQzhSvFFGurwPP3fNIJBVw9n2sm7wt4eu1AaJJiyO9135lROXR+mTbPRaNBv3fYIIfdt42W/KRB97Gw3tfJqq9AYVrEaDrKSLGpgNg5HtXFhrUFZ8zq+3zEbZmOCue+j6lY9Hf5umpldgbtkKJYjbSEan0j7THMTLJxtUCMP2c6T5ss2W6fbfpM6TxScZCsn+Wz25CzTQySl3NvOnqic0To75vSFGrQq2fdv8cJG2M2/f0v/0hkd7Hei0gA+u2Tloi1Z7gTLtWgTsGzXVsIAQrpRTT7gXPf9YRxiLfpyixxk035j1bKIj8Hue1SSFVoqf/6oeelmGngvqiItEb7056M16R6SMIYEkr4JAuLdpqBgS7HDNkyeUZFiC8r5MCQiyT9iOQEripQTaJLII/JMmDHSMWbEkgCJcooQ7hxA3hJLl20vxdVeRjTjJmobL64x0TY36TBjN/xMHwh/cuG3JJysRbT1oqiXnn/5ZOPctMmng+ztRkRDy6Lu/ML/9Uc2P8s2fQFzT5yvYLomPPG1bS8VUZ4IEp090mg/su3TbSDkcNDTo5pm0bVCUUI3uHzpmho0g44e1ViaLoNyQGI8i261Mm2OprG5JOvRzDl6KfAs4EjEjtQUkNVspTUnmoJF0dFBtxZFHcoH6EAF3zx1Itt+lFY/tK+5E9wNaqDQOZaoahCWZHmpcxylBFQDyaptwuiq0xJiIn1KUvpbLdyfghYlVZ/oUS6BBo6W3LM/Vj900xpgVdrb1CKtTQNQzLrsra5imYLWYFQi3nYTpOROVUXC1TVmNwtSLL/DRLwSXtdTFZ+zLxnguhVs67iX0qJd9Qr0ZZjexVZUGmD82IRL0ZoBBI7DjEdCZBr0O4wT/W0bRL00GAm3t8jzAzwSjLGzCLuqiY648qdtRZAyW3Z/GG2V6gcNdLBjNG8/Zeas/sCEWoRFaR9IgIT4oKaySPhyn8Chy98DSTzClsRNZvV5TiFZcrD+2oQgqkn3OZbFes3i7S/3CVcNwCJJUCzXpiNzqqpadNjVeJT0luHi3K9Clr1eIFhf3h6u2n0Xo5y998IIAju8fYkU+OvjtQQUF2SVI0V39LXhQfDly3qusoMm9ovDws5+5SSsat4eHHXNxI+eHnlUvIAoQu/hgcoFxGjnR9YszNmYY3O2eukNOM7g6ZyUkrPt2fULksQF1nYhJcPVRnqTUDBXAVy8/eNEUXbqzwNk2ZIwpwHPKjkl8Pek5scshbxKyd03JHqjnmkJWdXPbsqOI0NNgwwk37XoV7TNQzTQmMKTmmvb8581QnZgVDpv+8pHBxoEwX1e6GyNZkRESs4obyQgJG6HQG9yl6DbSS6aBEy4GwRc/b09Cizq14jrpm2bo9tWcNitDeom03gaSHSlzmWbJRBHZ3OWscmAwtF21VJodRYbmhSv+pX6KonAkEnoOjgDLuZ9a4gpQD3dK45ckjXmiEFjTNd0KGrQfz5OJ+SEnmxZijJZ4jNnKhxnW8E4pZPL7LZ/84k9YcWyrKbrr7cLC7xV3ix0/6pU98HpG7/atCySzmC6AWax3Ul7y0Qf3XnQxwqrXrZwjdqM+rgk6ronplLdcaVl+EHVN/LZXtLUlxahU3A9yPmLjgZTG53eo+xuq9UqZttHO2niy3RHlsGqltofqbx92cI1XmXtrYwORBGIcFn3vHQ3WX9WT26YYJmR9UW0+ysInbVIXJbT2KBBbKNkegxpupONOxK6WGoHgqDa0yV94Wo+115PamFzn3j8MPLTdp9YSO/3V2iaTuMXceSQfKBnu8wyVINlWDj1ORbPdDLpzLTbHza00N29v/GC+A3f3xNCUSamADx6l06SzoqTPafDDZeXSz0jN7sLP+kD7D3vOF644897DYh08FtqBHOch7CwyO5cA/KlM07ngLcEBQkCiRFIkGjNkjoaFKBGrnlqtxsAFmfzm68Jad9mvdIfqU2OJZEPSxLJn0a7vYInyovUA7pJIOPIWqMzKPp02SprB76xO3iwIWuRVVHcPiRIyCIjO5n6YaXYKlYOx8nMagICEjoXqQ94w0zihCM3Mslksms6xGV+i8Hviwhv06nrGkmeIYmhy8u6uIB9wJtFnNzoW5OdBKDZA9D1706DCYA57/8xdzL+xcTExMTExMTExMTExMTExMTExMTExMTExMTExMTExMTExMTExHyn/D80swdz41lmpwAAAABJRU5ErkJggg==;" vertex="1" parent="1">
          <mxGeometry x="265" y="192.35" width="80.1" height="60" as="geometry" />
        </mxCell>
        <mxCell id="4zsh_qOHGE946CQNxaqM-41" value="" style="shape=image;verticalLabelPosition=bottom;labelBackgroundColor=default;verticalAlign=top;aspect=fixed;imageAspect=0;image=data:image/png,iVBORw0KGgoAAAANSUhEUgAAADkAAAA3CAYAAAC2EuL1AAAAAXNSR0IArs4c6QAAAARnQU1BAACxjwv8YQUAAAAJcEhZcwAADsMAAA7DAcdvqGQAAA0CSURBVGhD3Zp5bFzHfcc/894eXC4vkaJkSrIsxbElUbHgKHHqyDIqR2nqBC3q5rArp4drNW4bIEaNoP0jQFv3CAoUrgG3KALEaJIWSFPAdVOjig8ghiXLVizLkiVKIike4k2KXF57v33HTP+YPd/uiqQkukA/wIra+c2bne/7/eZ4v3li977Div/niJsRGQgEaGtroa21hba2Fr/5pvFcj3giQTyeJJ5I4rqev8qqWLPIez6xi4MH7uPggU9zzyd2lwwi/3dNra2NM2d7eOv4Kc6c7eHKwFW/uS6rFrlzxza+8eQRfu1Lh7UgIUrC6qEAlW9+Vb+yeo69+iYv/uAnjIxO+k1VrErk47/1Gzz15BHaO9pWJ64ehV+6RcIXF5f5/g9+wr//xyt+UwXmxs0fe9ZfWM4fP/XbPPP0USLRCBg3IZB8SBejQOTby38K9jUQiTRw8MB9bNrUwYm3T/vNRa7ryWf//E/48iMP6858lNyAx8+c7eHoH/6Zvxiu58l/fuGvefhXD9URWHTJCp8bxO/xcm/XYeuWzXTd1slbJ97zm2p78pmnj/L7Tzxao5+VBYOpRS7HY0xkEsRyGdKeU2FHgZIKbAeZtVG2B7Lq5+rSFArT1dTCHW3t7OrYxN0bN1V6uUZTf/XdF3j5p69VlFWJPPTL9/OPzz/r82CluLdj4/znZD+Xl+bA8VBuvvNKgWEgAgYETETALF6qPAmu1GItG5VzwZMV7a7E3s4uHt37SQ7tvEsXFGZvn9hvPfOXnDhZGqNV4frs3/4pXZs7y0oqBT4/cJoXr5xlbmERlbJQtguupzvsSXA9lO2iLAeVyaFyDrgeQgGmgQgFEKEgRmMYEQroMCzcoBWIZVIcHx0kGgyzd1NXKaR9RKMRXnvjePF7hcivH3mErz3yxTJdlQ18+8LPeXtsGJWyVu8FpcCVJeGWA7aLTGRROQcjHMRobUSEgzp6lFoxpM9MjyEQ3Nu1TRf4hO64Yxu9fYOMjU8BYBQMTU1RnqgYh5UX/mxmiA+nJlCZXEX5jWJEgijbw7k6S+7SOO54DJnI6A4HTUQ0DAHTf1mRH55/jx/3fFAq8C1vX/3yF0umwn/237uXzZ0d+W+VAvsS8/zDhyerBMp0Di+ewZlaxBmexZlcRKYsPdmsArM1grm1HaMxrNuaT+JOLujPeAwZT+PFM8h0DoLVgr9/9l0uz10rFZQJfeDAfWzY0Arl4fqVx36de/ftqRII8L0rZxi5VmrMW85gXxone3qQzOvnyZ0fJXdpgtyFUazTg9hXZpBJS4+/SAhhFO9lFcI0MJoawDDAckpjU6rieFe2i8q5KNvFiDZUhHPasXmoMBGB7r8CwzDovzLM0PBoyZMPHfpsTYGT2QTHRwcBkCkL6+xVUv91mvQbF3CGyu5iGV4sTvbdfuI/fIvky6exh2bxltK603Uw2xqLXq2FyjmorI23mEQ0hoqePT46yHQiXqooSjLu/6VPQiFcw+Ewd3TdVqpYxkB8AWW7yKRF6qfvk379PO7Mkr9aXZyha6SPncX6YBhnZA5nYgFvIaUnIB9GOEBgywbMjuaaNxxAZW3ciQXM9iZE/oYML81XVspPRHu774aCyLb21qoZqsDV+CIya5N69RzOuK+xVSLTFtb7Q1jnRpBLabz5BM5YDGcshjefRGbsivrmhiiBre2ISKiivIByPey+SYyWCEZrI33zs5UV8t7cfvsWKIjsuHNrZaUyYukEuYsTdUNzLThXZ8mc6MWdWgRAWQ7eQhJ3Yh5nZA53Lo5M5fSYigQJbm3HbG/yNwOAcjyc0TlEJMS8qrxJoL3ZEA6zadNGLbJ9z3Z/lSLXpmNkT/b5i28YmciQ/cUAuQtjKLe01irbRS6lcacWcK7O4l5bRiazGK1RAlvaEQ3VXpXxDCptMe/l6ob39tu3aJHppuoGCrTNZVBWjTt1k9iDM2RPXMa9tuw3oVwPGc/gTi/hjs6hMjkCm1sx26q96i1n6GyI+ouLITs+MV0QGfBXKbJRBf1FtwxvKU32nX5ylybqbuuU6xVDWoRNAl0b9O4oj0xk6Iw05r9VejPnOMzNzWOYG6IkVf2p/a6d9UP5VmH3T+mxGkv4TUWU4+FOL6GyNoEt7RjNEV1uu+yKtpfVLAmdWNATpUEwgI1kIlv7B7p3f9xftC5480myJ3rJ9en9Zj28hSRyKaXDd4MO3ztby0WW6J+aBsAwGkOgFKditRNC27tu4wuff9BfvG7YlyfInOzDW0z5TUW8Bb3smB1NfO6efWxp0ts3P2fGRwAwREjHd8/8jK8K+oFNwO8+8TW/YV3xZuNkTvRiD9Tqk0Yu6Ztw5P4DfhMg8KTkTG8vAIbMz5w9sRliuUxVZYB93bv4i+887bOtM54k1zNG9tQVZCLrtyJTFn+w59N0d9TeqZ2eGmN+KgaAIfNhkc5meWmyznoo4Ktf+RIPfPZTfsu6404vkX1voEro0QcP8fW99fvzP1cuIpfTABgyZaHyKYyXhy5xMT7nr68xBN/7p+/yrW/+nt+y7shEtii0MRTmb37zUZ588KGqtEeBX8xNcGp6DG8hCYVtnTurd/Eqa/PSRH/lFeWYgm8cPcKPXnyOT+2/x29dV2Qiyz67gRce+x0+t2ev31zBsYkBlGXjzWuRYve+wyrywC4aD+kLjaYGntr7GR67vbvsMt8tyyeQensHOd/Ty8joBLOz86TS/jF9c7Q0R9nStZmP7dxO95676N5zV34nk18LRfGfIs9fOsWxiQGs94dI/ff7utrufYeV2Rql9Y9+RWfZAKMtyt/tP8xn2vUuXlMjNlZID64bhUyi78np9Zlh/v78SQBSr5zBOq2fgw0AL57GHipN13I5zXcuHue1a8PFsprk94cYAsx82r+Qgqi9X741KFUl8EJ8lucGdBpSZXM4I6W5pZgZsN7p17nQPF4swXOXTvFvYxfzJavodbnoWsJvBYX2y3j12jDfPv9m0e4tpJDJ0mxczPHIdA7RGCa4rbRFUpZDT2qBZWmzJdJEa7BhdWLLKQi/BQc8xRsGgGA8E+dHoxf519GeYhWZsrD7JrF7Szu4iryrc3WW0N1bdGIpj8o5XEku8vOFCSzlsjXSTDQQuoEe5ikXvRrhBc+JUjRMJ+O8NN7H80NnuJzQCz7oOcIZieGOxXAnF0pN+I8JjOYG2r75cHESKiACJqIxTKAhxOc37+Dwph3s31C+21j/meedsau8MdzLuxOjiG0bqvroLaZwxubJvtOPM1zKZFSJBAju3ETL4wf9xRqjkOoPEAwFaTZDtBgBWgNhkFJvLGwP5bo3rduTkoRtkcjpjyd1JsFojmB2NlfUlcsZlOOSuzRB6tjZigx/TZEA5uZWWh5/EKOxftYAtGiEfq5DCJ1SNA0tOOeibEdPaKtMOK+EaAhibmxBhPLJZqn0kYOjJ83UKx+QuzRecU3drK83Gyf+L2/ijJXFfC2kPugRpoFKWdh9U9j9U7iTC8iUhQiYmBubMdqiOl9q1v3JFRGREEZbtNiGsl2d58kLlJZTsRQWqOvJciIHd9Owf2fxafx6KNvFW0wjU5UbahEJYURCiMawnj9CAe3h1by2EjQxomGdzDIEwhCorF2VrLbOjZB+7cOKMlYrEsDsbCFy38cJ7OjUPxiqnxcC9BnGQgqVH0dVCDAiYZ2xE+gb0KAf4AEIGIhgABEOIhqCOnu+nMYIBhCR6ryTt5gi/bPaueGq88l6qEwOe3BGr6dBE5m1wZUIQ+jDVh9GQ1BnuD1ZDCc/yimdayrLQWZy+rAWEIaByljIxRTezBLefAIkmO3VmTmZsnBG5sj1jNU8Uly1yAJeLIEXS2CEAiB07lOmLXAlIBBlp08iYGA0N4AQNY8FqlDoAx7LQaYtfZ7peKAUwjAI3rHRfwUya+NOL2H3TeLNlZ2JlLFmkeS9WpiQAp0t+pA1ayMTGb2dcvQ4E0F9IwpjUTn6JHqtGK2NFTuxAspy8GaWkEtpcudG6s7gqx6T9TA7Wwh3b8PsrH63TgT1BsKINiCiYYQh8BZTyHgW5a0sVpgmRnsUs7WQV9UoTyGXUjrZpRTWuRGcq77zkDJuWmSBUPc2wt354+1amAZGNKzX0XBQv0+QH4d+RDiIEQnpY/ay8FeeQiYzyLJjQHtgRo/F63DLRLKCVysQQs/Q0TBGRG8elOvpw9qg6X+K0m+MJC1kMqvfNMnjzSfJHL9cUbcWt1RkgRW96kMETURDqGpZkllbvz1SY8ZUriw++a/EuohkLV69AbxYgswJnVNdDTe+x1qBQkdyZc91twJ7YGZNAllPT5ZjdjQTuruLwNbqZWC1uNeWsQdm6q6F1+MjEVkguH0jwTtvw+yoPmeshzu9hDuzVJGzWSsfqcgCIhTAbG/CaG9ChIKIsH4+xcu/uZVz8JbSeLPxulvCtfB/IvKj5n8Bio0z9A2r6zIAAAAASUVORK5CYII=;" vertex="1" parent="1">
          <mxGeometry x="480" y="232.35" width="31.1" height="30" as="geometry" />
        </mxCell>
        <mxCell id="4zsh_qOHGE946CQNxaqM-44" value="" style="endArrow=classic;startArrow=classic;html=1;rounded=0;exitX=0.9;exitY=0.571;exitDx=0;exitDy=0;exitPerimeter=0;entryX=0;entryY=0;entryDx=0;entryDy=0;" edge="1" parent="1" source="4zsh_qOHGE946CQNxaqM-8" target="4zsh_qOHGE946CQNxaqM-27">
          <mxGeometry width="50" height="50" relative="1" as="geometry">
            <mxPoint x="361" y="272.34999999999997" as="sourcePoint" />
            <mxPoint x="600" y="372.35" as="targetPoint" />
          </mxGeometry>
        </mxCell>
        <mxCell id="4zsh_qOHGE946CQNxaqM-46" value="" style="shape=image;verticalLabelPosition=bottom;labelBackgroundColor=default;verticalAlign=top;aspect=fixed;imageAspect=0;image=data:image/png,iVBORw0KGgoAAAANSUhEUgAAAOEAAADhCAMAAAAJbSJIAAABU1BMVEX///8AAADO6PoOh9YqtN6AgIAtxcza3t4xpiXJxL3U7//h5eXH4PJiZGSRk5Ph4eHz8/MXFxcTgCJfY2jLICdYY2rvoSTfjBFgbXVVVVU4ODiNn6sfIyUNf8kKYpvT7v8EExgrueQYaYEoLTETUlUOOz2zr6jSzcaswtBwfoh+jpmbrrsmqK7Dw8MHQGUhja0ptbwkmb0Mc7awbw0URhCBFBkfaReLXhVLS0srKykwoyS1zNxycnJMVVwfHx8/R0wqjiANLAozOj6ioqItmCIkehsJIAcQNwyJiYkGEwRaPQ6VqLXMiR9xTBGFlaFERETAHiUzCAoXDgEwHgQjFgPQghBlPwjCeg8aVxQ0sSd8TgohchmeYwwdYhYLJAhPNQzdlSEJPxHSjiCqcxoEGgf8qiYFLklqERSmGiBzEhasGyEpBggTUmQXBARYDhFICw4JU4S2v41uAAAMh0lEQVR4nO2d+UPbyBXHLbcuVAhskxhsTKvduguWXfeCEBxhGwwkpCSYzbWBnO0u3ey26fb//6nSvJE0mkOHZUuiO99fsGQhzUfvzbw3h+RCQUpKSkpKSkpKSkpKSkpKSur/VpVKuVyxP5TLS5WsCzNrLfWODxobiqJUe4VKw/rb319e6ZWzLtas1Cv1FU+FA+/zcHnr1huz0ltW/Or1/dsbx7cZcqGkMKIJLS33si7olOo1WD4uoVUtj7Mu7BTqbVAUz54ThI8f0pC3jbHss9+LD/d3Xq7vEIS7Vw8OT3eP/NbNutBxdEYU/Pm1RWcLCLeAcNHS1eLJm0fEkY2FSsaKytcbeqV+tbPuCAirikuIdLJHMFaz1kFMAz67Xie0Q6B4hJYpT/3emqkiIC7tu0ffX1+PQmhp9Sh1FJFCAbfdQ69frkcmXFw8fZw+DFehVdA58Pk367QCCRcfvM4Ah6MQwLJz3DXD5xAOUFPDEi5eHToxclzPRK0ohNiEL1gDuoTdTQGhZcZd+PeBmolqUQgXsBV2QgmveIg4ONZVVS+mrgiEC2crlZIIcecakjZMqDzefXNCm/AIjqhqTaOZR0LkoQsHHMSXb//m1WRMaOv9uxMeYHtge2rqVgwlxA7KIn7z9BnZVhGElh6d0oCKOUB/DDVnhBWnzBTiy1eKX9rAv/3+9IoHqCjnKSOGEXqZjA/xmuKzyq21qF1Hhx7g0PRugJmuo4YQrhAl9hB3SP+sDoxmW7NL3e52amOS8fUJBoQ6iNVKFTCEcIEsr4dIarOouzFA19Wi2RywB5m+felWxWBC6M8/c5pMHuImXVxd1zr+Q6rmCH/CgbGdpp8GEmIffbLGRSxNuIT2SYvNqnfc0HXRN6vfob+p+mkQIW5H79+scRD3FwoNEaFlSM1wLegC7q2u4m7xxeyMqCNNSQg0z9dsfaAQ7QEmDqF3Ld3EAdIkAFdXcYqqzYRO1drtdteWJmYMIFxwfBTJZ8UhGrhnCbVm0y27XrRP7dXBN6tI0F+cSWOjEvVdXLUDCGFU+9XNmh+xvLW8AkM7DKGJbOZu6t2aoQ38gI6fzsKIbQ/QatLjE+I+4ce1NT9iwz2CJoRz1b27qavqOemiSEezMqJ+rhAyRYeJCaHCPb1xCW9wL0JIqKGvB75SGDTgDI1I2nAKwgptwrUnsOdARKg3wTq+GoFL8XePEBtxBs2pWk9EeAwm9ADXwITDiohQHXMupdcFRhwnBrTbayMBIaQzTzwfvQ9n2i6ICE1+ySEhf0gYEcJ+ewaE2ub0hBAqPngW/AgnWimICPUO3/sAXHntEcLo2wzaGrI7E5sQBri/9QjBhP2CkLDIc9KiF7UII4K7JwYskh2Z2IQo5yTbGThPT0wIbcqIY5kWbcRHs3FTX4clLuESOKkXKt6iHY2CgNDqN0Glb7JNJI5bRE18h3Z0krWmTks6hlsrPo5PeEw56Q30eRd4hHpRM7vneJyGexEw4h7lpq1EFdFx/qGGPsXO2g4oJ33CMSEmLJJd3jqv1DhQEjHxKPi2U//OLXfT8U69qJrt+Jk3mu584ZkQxmW2OIRV3/BMh28X9N1jj3A3RkVsd82iqlIdJLWLLxjemeYTQkJDhHuI9hUOIaV6wEU8N4WgHyWtQQGhOq7bQ0FeP1B3ErZuuKfzCWGe4q0L+A+0vVwIJ1RGnIRThzu+6xK+Qdu1CMUbEaceGE1TK1rm1HGMVS4iVGU+ITQ0XkLzLc9J+YT+zBsLcvIjKq0Zh5ZP7TCnH9eMronHSCIlDXxCiPcfnWBx8xRtLwkJx/uDkbsKhVcXoTGimprNsP6F7us9MIrgA0JCVPZn91095x3kEk7ugCZ4my04Dpa7rt6jbWGUxtJ8MwW0bGcJqMnOV3xC3vomOla4hIM7jnDYYEOGv7PqKqQxdWJ6fUAPp9sa2+dtjznf4GKZQYTcfzmjDsI9yMYdTzAHUGWNaHLPGEzojA8YqqqZ7Yv6yPe/yMX5p8VqaXEJ6fVbW3CeO6TArbqM80xDCM2T0x3T1aKmdTt1x3Ht2Q+dbYhImQGEvOF7hV4YC7OmDR+hcAZtxDtjcEszIsuJMXVVVc1uZ2CgJEY3eGelbqAg4tOrR61+E7M8DVzyjl9oH6eRM1nEVmA+4pS+yZ5Ld2ZKQmwYRFgobPcosWvDUHM05BEOOKVSu7S0oMbeCRSBEQET/pHRP8NtOFEYMcsoN+IQmpyGn62uhPAxAUe4hL/5Ba3fhhKyTqrQXScnWET0Ul57HxAPcbFCEusEhLziMEaExGfgA4S6aSRtS52+UUgnedaEJeqgONGCn34JCfENGQXyJSLk5jQTurIqjBGhwWQjvt7knVBMiDOV0Lx1ekKoYj/cc/Q17yA2a8PLGthwiPPSPVcwFsWvh86QT3BLlJAQqtjlXUffo2065DuZ9xgDOjki59aDcd0lYVeIkDdfpKtaGwNyR0RmRQj9w08u4Se0Le4ftiajidtacrqlkIA98hZKoeWKdP/QSljMCzczaPlvlM6ROj0h9PHvuYQ/om26c8HvAdeE44l7LuAJHEkQ2mlnk5xpoQJFm0kYbNWmJoRG5D8u4V2oiBHGabhdfHyRQ5cQhhPdsVXdyjUNqh/k9wRuWutoGkJoTD97hD+go47DCQ0OIHbShw9cwndECfRiu8MC+MbO9YsgwOkIod9wSbnphEO4Sd77cZs7XgoFfE0vOCU9mOLzr9J0MpxZEkI09yri3X+hHT0OodqtQZxv1dqCZR/w/SFVDcFMTLYzMqycnBodnQMhzFt87RHeQzv2eYRWA2+abdOky+WaEML9kWdCGExEKZnfAVv1rqmzp5kHIZ578tz0rsIaMWDFECk8nnTqEcKQN4r3etctaK1pFvk3CQr5xZ8Y/TsBISz4ukcbsRqfEGco33krwB+AvfD3aFhg3GkHLALHhL/8ktbvEhCWaTe9/Iz2lOISOl1ZwoQwpu/mducdpuIJCGklIsTz+J9oI5J+Gs2G4KNELYSExktKg5elzY8QEjci6OOoT4x8RyHUcSPhNaSLp2jHKMb86HwIcR+RaGsuYc9yHEKnIXlHPIcBwZAzWZw2YYkxItTEaixCg6mFkLFVo/PNjRBCovIj7aVT2ZDwUjChYCo1VUI8LPwTBViNVw+LNQoRaqFwDI3XSdLnRYgXJ37yAxLd4GjRgkKEDcEQk641OxxdjOdDiGvi50sC0NfPj5jTOIirduce1kNx5m6QAmda5kCIh5q+FwBGJXRX9lhWPIRPgoY0OP+cAyGOiZafclw0BqHnqA9gDbQoFqrcceN5EuLJl88/cQEjE3qI+HkL0Vh3BoRl3yW4Y21RCL26iCSMFBkQOn7KBYxDSCKOxX0IRPjVnxn9fn6E3hwN7aIxCQnEgPkYIPwVo3kSFpw3RXBejRSL0EUMGMnOhrAsBIxJiBGD0rVsCNHoMMdF4xMixMA53YwIC+UVwSuf4hLqXSN4siUrQqHiEob25m8/YZgkoSSUhJJQEkpCSSgJJaEklISS8OdBGDIlGP4gXe4JfevSGFXPQ2ezc04Y8myAEv6cU94Jg0esbYU9Upl7Qs4rsPwKc9O8EwbP/ikRXoWRe0Ld7BgBaoa+sCX3hGgds1jhy0tuAWFCSUJJKAklYTih/ahuPPmnanJPqBqx3+g/9D0Em3fC8MybJ3JGMe+Eqvjp/wCRz2/lnjDw0R2RjFtkQ8GDoiEik9XcE+qmUYv3Uv+a4Xv9URjhl1kTWmeLK+rpHyD8A6OvEOFfGMETJX9l9N+5ESZU+ChBLElCSTgPwuBn1OIq6P00GREWzWFgkeMJr5bPF2FR7zZnJedx1pwR8p+3mErOGfNGOHtJQkkoCbOXJJSEymbs8bWUVUxKeFskCSVh/iUJAwiX865+QsJhZSnnWk5KuLSQb0lCSWgR5l1JCasredckabS4JZKEP1PClfDz5kb0b3NEFPfV7bnUPv9Z7XAtlacXauL6W1EE1aGS4GJT8iUTem9Kf/vX4doGwkxKmUSSUBLmX5JQEuZfDSCMogT9n7mpvML5DZA5q39G/wLH/LTE/QWQFLSfEmMvIz5bzG/FzEPbGQKmgljJFJD9OZzZq4Sv1N9IWfi69E+pzFzYhP2DUuqapGNEeA9h/yx9wNIZINK/gDdrgZNmYEFLB6m4KYTCTABLZ2iaqR9eyESCYWJJKAklYfaEjWw0TI0wU0nC20+4OWfC7KdrppyEia6sp2sm007CRFeS6ZoZaO58UlJSUlJSUlJSUlJSUlJSUinofyqWYX+WBRRuAAAAAElFTkSuQmCC;" vertex="1" parent="1">
          <mxGeometry x="320" y="204.7" width="25.3" height="25.3" as="geometry" />
        </mxCell>
        <mxCell id="4zsh_qOHGE946CQNxaqM-47" value="" style="endArrow=classic;startArrow=classic;html=1;rounded=0;entryX=1;entryY=0.75;entryDx=0;entryDy=0;exitX=0;exitY=0.5;exitDx=0;exitDy=0;" edge="1" parent="1" source="4zsh_qOHGE946CQNxaqM-41" target="4zsh_qOHGE946CQNxaqM-46">
          <mxGeometry width="50" height="50" relative="1" as="geometry">
            <mxPoint x="560" y="223.35" as="sourcePoint" />
            <mxPoint x="370" y="322.35" as="targetPoint" />
          </mxGeometry>
        </mxCell>
        <mxCell id="4zsh_qOHGE946CQNxaqM-49" value="" style="endArrow=classic;startArrow=classic;html=1;rounded=0;entryX=1;entryY=0.75;entryDx=0;entryDy=0;exitX=0.25;exitY=0;exitDx=0;exitDy=0;" edge="1" parent="1" source="4zsh_qOHGE946CQNxaqM-27" target="4zsh_qOHGE946CQNxaqM-41">
          <mxGeometry width="50" height="50" relative="1" as="geometry">
            <mxPoint x="720" y="312.35" as="sourcePoint" />
            <mxPoint x="590" y="472.35" as="targetPoint" />
          </mxGeometry>
        </mxCell>
        <mxCell id="4zsh_qOHGE946CQNxaqM-51" value="" style="shape=image;verticalLabelPosition=bottom;labelBackgroundColor=default;verticalAlign=top;aspect=fixed;imageAspect=0;image=data:image/jpeg,/9j/4AAQSkZJRgABAQAAAQABAAD/2wCEAAkGBwgHBgkIBwgKCgkLDRYPDQwMDRsUFRAWIB0iIiAdHx8kKDQsJCYxJx8fLT0tMTU3Ojo6Iys/RD84QzQ5OjcBCgoKDQwNGg8PGjclHyU3Nzc3Nzc3Nzc3Nzc3Nzc3Nzc3Nzc3Nzc3Nzc3Nzc3Nzc3Nzc3Nzc3Nzc3Nzc3Nzc3N//AABEIAIcA4QMBIgACEQEDEQH/xAAcAAEAAgMBAQEAAAAAAAAAAAAABgcEBQgCAwH/xABGEAABAwMCAwMGCQgLAQEAAAABAAIDBAURBhIHEyExQVEUImFxgZEyNDZSc3SCobEVFjeys8HS8AgXM0JiZXJ1kpSiUyP/xAAaAQEAAgMBAAAAAAAAAAAAAAAAAQIDBAYF/8QALBEBAAIBAgQEBAcAAAAAAAAAAAECAxEhBBIxUQVBYbETM3GBIjWhwdHw8f/aAAwDAQACEQMRAD8AvFERAREQEREBERAREQEREBERAREQEREBERAREQEREBERAREQEREBERAREQEREBERAREQEREBERAREQEREBERAREQEREBERAREQEREBERARFr77dYbNbZKubqR5sbPnuPYP57lFrRWNZWpSb2itessa/3kUDORTkOqnjs7dg8T+5a3S90qpbg+lqZXysewvaXnJaR+5QyS4Tve6rnk3T1JLvU3OM/dger1KU6ChkqKieuecxxt5Tena44J9wx714dc2fNxlZidI7ej2snC0wcNbm69/VNSQBk9Ao/ZLpVVFwLqp4NLXsdNQAN+CxpxjPfuaWPHrd4LL1GKia3eRUgkElY8QGRgP8A+TD8N2e7DQ7B8cLAutoqqajiq6WuraqW3vE0NO5sWHBow5o2sByWFzR17wvatM67PNw0pNdLTGtv77+0vcLK643m7xi7VdNDSzxxxxwsiwAYmOOdzCe1xSO71NJQXRlS9tTU0U4p4ZNobz3vawxggdA7Mgacevp2L5UtmZXXm81NSa+Fkk8Ri5VTNAHt5MfXDXDPXIz6ML3PaA+4UlvoRUUdHSA1T54+pfM7LWjc8Hccbyc5PwVXdmn4UzFZ7R5RHlHnG+/T7vvQ3SShs9c67y82ote4VEjW7ea0N3NcB6Wke3ISKhvNTC2pnu8lJUPG4U8MMboo/wDCdzdzsd5yM92FhXOyT+VvjdVVdVBdKZ9FUyOazdEcOMb/ADWjoCXjr3uCzYL3PBA2G42yu8uYMOZTwOkjlI72PHmgH/EQR3qY7Si1dubFpMz6R7T66/bR6bW1kd7oKatkij5lDLJMyM5YZA6MAgkZ/vO9693KvfHdLPDTTt2T1L2TNbg7miJ7h6uoCw5KF9xvlulu1tic0UM3MY5oljjeXx4GSMZxn3Feq20UtNeLLNb7dDFsqX818EAbhvJkHUgdmSPbhN0cuPWNeuk9tPN8bY2ruMdTPNf6uAtrKiJscbYA1rWSua0dWE9gHaVIqWN0VPHG+d87mjrLJt3P9J2gD3BRK3R2qAVbLrZJZak1tS4vNrfLuaZXFp3BhyNpHepZRyxzUsckEb44y3zWPjMZaPDaQCEorxUaTtG2vaI/V9kRFkaYiIgIiICIiAiIgIiICIiAiIgKndW3/wDL+pHwRybbfRhwa8dmG9Xv/cPUPFTriJezZtPSCB+2qqjyYiD1bkec72D7yFTbgKW2NZ2S1hDiPmxNPT3vBP2B4rBm3jle/wCD8NtOafpH7y2kdWK6tDeZHHvOG5PRjewAY6nAwBjqVdtqoIrbb4aSHO2NvVx7XHvJ9qqbhlYW3K8NrqmCV1PRne1xbiMv/u9e8jtwPAZPcbkVOHw1prbzli8ZyxzxirPTqjusdUDTENLIaM1PPe5uBJs24GfArC0jrdupLlJRC3mmLITLvM2/OCBjGB85anjJ8Ttf0r/wC0vCP5TT/Un/AK7Faclvi8vkvi4LBbw6c01/Fvvv3YlRx+ihnli/Nt52PLc+Wjrg/wChTHhtxFg10+vibb3UMtIGO2mbmb2uz1HQYwR94XLtw+P1P0r/AMSpvwPu/wCSuINHG44irmPpX9e8jLf/AE1o9q2HhOpFW/EHivT6NvrbULU6ufyGyyPFRy9hJOG42nuAPtVjkgDJ6ALjrXF4/L+rrrcw7cyeodyyP/m3zWf+QEF16Z42R36/0FpFgdAauYRc01e7ZnvxsGVba5D4Y/pAsP1xi6m1LqO1aYtxrr1VNghztYMZdI7wa0dSf5KDbIqaq+P9tZNijsVXLFn4Us7Yz7gHfipTo3itp7VNWyhYZqGuf0jhqQAJD4NcDgn0HBQTxaaDVenqi4C3QXqgkrTIYxA2dpeXDtGM9vRaPiPxAtekrdUQeUh94khd5NTsG4tcR5rn+Dc4PXqe5c2aPvMVi1Vb7xVslmjppuY9rMbndD4+tB2QigWiOKVr1jeTa6KgrIJRC6XfNt24BAx0J8VsNa8RLBo4thuEsk1Y5u5tJTgOfjxOSA0es+rKCWoqYZ/SAoDUbZNP1LYM/DbUNLsf6cY+9WLo7Wlk1hSultFQ7mxgc2mlG2SP1jvHpGQgkSKr7xxsslpvFbbZ7ZcXyUlQ+B72bMEtcWkjzuzos3WnFyx6Yq/IoYpbjWBoc9kLg1jMjIDnHvwR0AKCfVUkkNNJJBA6oka3LYmuDS8+AJIHvUXdrXl2aa6zWerZBHMIWjmRuMj9xa4AB3cR39vdlfXh5rGPW1lmuUVE6j5VQYDG6TfkhrXZzgfO+5eo9Myts1Pb3zxO5dz8scdpw5nOMm3Hjg4QZn5x0rtQUtnijkkdUQc8TNxsaMEgH0kDK3Sidi0lNa6yhqJKtszqd0ocSDksMbI42j1NYPaSpYgIiICIvhXVTKKlkqZg4xRDdIWjJa3vOPQOvsQ6qn4k1T7vrCG1xu2sp2tjyexrnYc53qAxn/SodcKltVWSSRNLYRhsTT2tYBhoPpwAtlUVTqmsvV0aQ99VVSU9MQQd28kkj1M6fbC3+g9IwVN1bJdZYZHQASeRxPEmPAyEdGjwbnJ69MAqL4p83UYs+PhsMaz0j/U34dWh9p03CagEVFSec8HtaCPNb6MDHTxJUoREiNI0c3myzlyTe3WVdcZPidr+lf8AgFpeEfymn+pP/XYt1xk+J2v6V/4BaXhH8pp/qT/12LVt890eD8pn6T7qErnFlyqHNOC2ZxB+0t5q2kk0rr6ujpQ1jqKu51Pjsa3IfH9xatFcPj9T9K/8SrT/AKRNpNPfrZdWDzKyl5TsD+/Ge0n1Ob7ltuYWvrrU0VHw1rL3SSY8ro2+TOHbmUANI9W7PsXOmirQK6n1BXyRl0VutU0gd3CRw2NHuLj9lZ9/1f8AlHhtp7T4k3S0k8pnHeGt/svZh7h9lTPRFmFDwO1Jc3tHNuMchDsdeWzzQP8Alv8Aegr3hj+kCw/XGLYcYdRTX/W9cwyONLQSOpadmejdpw4+1wPXwx4LX8Mf0gWH64xazVLXs1Nd2S/DbWzB3r3nKC0+H3DTStx0xBcNR3MeWVbC9sTKtkfIbnzfW7HXr44wqx1VahpvU9Zb6WsE7aWUGGoid2ggOacjvwR2d6k1n4RanvFrpblRGgNPVRCSMunwcHx6dqzP6j9Yf5f/ANg/woNprKxUmpuHTOIVRV1JuXk0EUkXm8tz2yCJx7M9epVdaNs8N/1RbrTUySRw1U2xz48bgMHsyrn1FYa3TX9H+qtNy5flMLml/Ldub51U1w6+ohVTwq/SHYvrQ/AoLts3D+z8NhcNTU1bW1LqWhlJjmLMEAbu4Dr5uPaud5563UV9MtVMH1lfUDdJI7A3OOOp7gM+wLqrii17+Ht+EfwvJHE+oYJ+7K5Nt9JJcK+mooSwS1ErYmF5w0FxAGT3DqgvG4cJNHt09JHRXsG6siLmVD6tm2R4HYW9gaT06dR4lVJoe+zac1VbrlDIWtjma2YDsfETh4Ps+/B7lLf6j9Yf5f8A9g/wp/UfrD/L/wDsH+FBEte/LnUP+51H7RykeguFl11nROubqyKioS4tZLI0vfI4duG9OnaMk9oUc178uNQf7lUftHLpXhExrOHFjDGho5LjgeJe4n70Hrhpo6TRNjqLbLWtrDLVOnEjY9mAWMbjGT81S5EQEREBERAWHdXVQo3ihjjfOQdvN/s/tdQcepZiwLyd9GKVp86reIB1wdp+Hj0hgcfYpjqmOqp4NAXm5U1DBA6khp4oua50jnAl0vnEgbTkABjeuD5itDS9ji0/ao6KJzHuHWR7IwwOd44H7yT6VtgABgDAC/Ve+W19pZcme+SNJ6CIopqXXFJp66igqqKpmJhbLvhLe8kYwSPBYbWisayjDgyZrcuONZaXjJ8Ttf0r/wAAtLwj+U0/1J/67Fr9b6s/OaanENO6Cmp9xa15Bc5xx1OOg7Fv+D1vkNVX3JzSImxiBjvnOJ3O92G+9ausWzaw6WcduH8LmmTaf5lzpcPj9T9K/wDErpPjpafylw9fUsaTLb5Y6gYHXb8F3sw7PsUifw+0g97nO09QFzjknldpUgq6WCspJaSqiZLTzMMckbxkOaRggrccq4lgikqJo4YWF8kjgxjR2kk4AXVGrbWyy8Ia+2RdW0lr5WfnENGT7Tkra02g9KUlTFU01hoY5oXiSN7Y+rXA5BHtW8raOnr6SWkrYWTU8zS2SN4yHDwKDkrhj+kCw/XGKX8ctD1Vsvs+oaCnc+21rt85jb/YSn4W7wDj1z4kjwzdlDofS9BVxVdFY6KGohcHRyMjwWnxC372texzHtDmuGC0jIIQctaI4qXzSNv/ACbDFT1lC0l0cU4IMZJydpB7CcnHpWffONmqrlE6Gj8ltrHDG6njJk/5OJx7AFdVx4ZaLuMvNqbBTNcTk8hz4QfYwgLItHD/AEnZpWy0FipGysOWySAyuafEF5JCDE1haqnUfDCpoog+armoY5GDPnSPbteB6yW/euWrTcauyXamuFGeXVUkoeze3scD2Efcu1lGL5w/0pfqp1Vc7LBJUOOXyxudE558XFhGfagrbQPEW9a71MLFe46JtuqaWZs0MEJHMGwjqXEnv7lVutNK3HR18koqxj+XuLqWpAw2ZgPRwPj2ZHcV1LYNHad06/mWa009NLgt5oBdJg9o3uy7HtW0uNvornSupblSQVVO7tjnjD2+4oOebVx01FR0LKero6KtkY3aJ5A5rnel2Dgn3LO0hxP1NqjXtmo6yoip6J85309LHta/zXdpJLj6s4VmS8J9DSymV1hYHE5wyomaPcH4W+smmLFYTmz2qkpHkYMkcY3keBd2n3oOUde/LnUP+51H7Ry6X4S/o5sf0B/Wcsyr0JpWsqpqqqsNDLPM8ySSOj6ucTkk+klbq30NLbaOKjoIGQU0QxHEwYDR6EGQiIgIiICIiAsOSnklukM7scmCJ20Z7XuIGcegAj7RWYiAiIgKG6w0N+cdybXR3HyZ4ibEWOh3g4JOe0eKmSKtqxaNJZsHEZMF+fHOkq5oOFVOyQOuN0lmYDksgiEefQSSfuU+oaKmt9JHSUULYYIhhjG9g/nxWQiitK16QvxHGZ+I+bbUREV2sIiICIiAiIgIiICIiAiIgIiICIiAiIgIiICIiAiIgIiICIiAiIgIiICIiAiIgIiICIiAiIgIiICIiAiIgIiICIiAiIgIiICIiAiIgIiICIiAiIgIiICIiAiIgIiICIiAiIgIiIP/2Q==;" vertex="1" parent="1">
          <mxGeometry x="459.99999999999994" y="428.5" width="100" height="60" as="geometry" />
        </mxCell>
        <mxCell id="4zsh_qOHGE946CQNxaqM-53" value="" style="endArrow=none;dashed=1;html=1;rounded=0;" edge="1" parent="1">
          <mxGeometry width="50" height="50" relative="1" as="geometry">
            <mxPoint x="80" y="662.35" as="sourcePoint" />
            <mxPoint x="400" y="662.35" as="targetPoint" />
          </mxGeometry>
        </mxCell>
        <mxCell id="4zsh_qOHGE946CQNxaqM-54" value="" style="endArrow=none;dashed=1;html=1;rounded=0;" edge="1" parent="1">
          <mxGeometry width="50" height="50" relative="1" as="geometry">
            <mxPoint x="80" y="662.35" as="sourcePoint" />
            <mxPoint x="80" y="182.35" as="targetPoint" />
          </mxGeometry>
        </mxCell>
        <mxCell id="4zsh_qOHGE946CQNxaqM-55" value="" style="endArrow=none;dashed=1;html=1;rounded=0;" edge="1" parent="1">
          <mxGeometry width="50" height="50" relative="1" as="geometry">
            <mxPoint x="400" y="662.35" as="sourcePoint" />
            <mxPoint x="400" y="182.35" as="targetPoint" />
          </mxGeometry>
        </mxCell>
        <mxCell id="4zsh_qOHGE946CQNxaqM-56" value="" style="endArrow=none;dashed=1;html=1;rounded=0;" edge="1" parent="1">
          <mxGeometry width="50" height="50" relative="1" as="geometry">
            <mxPoint x="80.22" y="177.04999999999998" as="sourcePoint" />
            <mxPoint x="400.22" y="177.04999999999998" as="targetPoint" />
          </mxGeometry>
        </mxCell>
        <mxCell id="4zsh_qOHGE946CQNxaqM-57" value="" style="endArrow=none;html=1;rounded=0;" edge="1" parent="1">
          <mxGeometry width="50" height="50" relative="1" as="geometry">
            <mxPoint x="119" y="642.35" as="sourcePoint" />
            <mxPoint x="369" y="642.35" as="targetPoint" />
          </mxGeometry>
        </mxCell>
        <mxCell id="4zsh_qOHGE946CQNxaqM-58" value="" style="endArrow=none;html=1;rounded=0;" edge="1" parent="1">
          <mxGeometry width="50" height="50" relative="1" as="geometry">
            <mxPoint x="118.16" y="502.35" as="sourcePoint" />
            <mxPoint x="368.16" y="502.35" as="targetPoint" />
          </mxGeometry>
        </mxCell>
        <mxCell id="4zsh_qOHGE946CQNxaqM-59" value="" style="endArrow=none;html=1;rounded=0;" edge="1" parent="1">
          <mxGeometry width="50" height="50" relative="1" as="geometry">
            <mxPoint x="119" y="642.35" as="sourcePoint" />
            <mxPoint x="119" y="502.35" as="targetPoint" />
          </mxGeometry>
        </mxCell>
        <mxCell id="4zsh_qOHGE946CQNxaqM-60" value="" style="endArrow=none;html=1;rounded=0;" edge="1" parent="1">
          <mxGeometry width="50" height="50" relative="1" as="geometry">
            <mxPoint x="370" y="642.35" as="sourcePoint" />
            <mxPoint x="369" y="502.35" as="targetPoint" />
          </mxGeometry>
        </mxCell>
        <mxCell id="4zsh_qOHGE946CQNxaqM-61" value="" style="shadow=0;dashed=0;html=1;strokeColor=none;fillColor=#EF8F21;labelPosition=center;verticalLabelPosition=bottom;verticalAlign=top;align=center;outlineConnect=0;shape=mxgraph.veeam.linux;" vertex="1" parent="1">
          <mxGeometry x="339" y="502.35" width="30" height="29.2" as="geometry" />
        </mxCell>
        <mxCell id="4zsh_qOHGE946CQNxaqM-62" value="" style="points=[];aspect=fixed;html=1;align=center;shadow=0;dashed=0;fillColor=#FF6A00;strokeColor=none;shape=mxgraph.alibaba_cloud.prometheus;" vertex="1" parent="1">
          <mxGeometry x="329" y="582.35" width="40" height="40" as="geometry" />
        </mxCell>
        <mxCell id="4zsh_qOHGE946CQNxaqM-63" value="" style="endArrow=none;html=1;rounded=0;" edge="1" parent="1">
          <mxGeometry width="50" height="50" relative="1" as="geometry">
            <mxPoint x="440" y="422.35" as="sourcePoint" />
            <mxPoint x="600" y="422.35" as="targetPoint" />
          </mxGeometry>
        </mxCell>
        <mxCell id="4zsh_qOHGE946CQNxaqM-64" value="" style="endArrow=none;html=1;rounded=0;" edge="1" parent="1">
          <mxGeometry width="50" height="50" relative="1" as="geometry">
            <mxPoint x="440" y="502.35" as="sourcePoint" />
            <mxPoint x="603" y="502.35" as="targetPoint" />
          </mxGeometry>
        </mxCell>
        <mxCell id="4zsh_qOHGE946CQNxaqM-66" value="" style="endArrow=none;html=1;rounded=0;" edge="1" parent="1">
          <mxGeometry width="50" height="50" relative="1" as="geometry">
            <mxPoint x="440" y="502.35" as="sourcePoint" />
            <mxPoint x="440" y="422.35" as="targetPoint" />
          </mxGeometry>
        </mxCell>
        <mxCell id="4zsh_qOHGE946CQNxaqM-70" value="" style="image;sketch=0;aspect=fixed;html=1;points=[];align=center;fontSize=12;image=img/lib/mscae/VirtualMachineWindows.svg;" vertex="1" parent="1">
          <mxGeometry x="580" y="480.75" width="22.61" height="20.8" as="geometry" />
        </mxCell>
        <mxCell id="4zsh_qOHGE946CQNxaqM-72" value="" style="shape=image;verticalLabelPosition=bottom;labelBackgroundColor=default;verticalAlign=top;aspect=fixed;imageAspect=0;image=data:image/jpeg,/9j/4AAQSkZJRgABAQAAAQABAAD/2wCEAAkGBxISEhUTEBIWFRUVFRcVFxUYFRUXFhUYFRgWFxgXFhcYHSgiGB0lGxUXITEhJSkrLi8uFx8zODMtNygtLisBCgoKDg0OGxAQGy0lHyUtLS0vLS0tLS0tLS0tLS0tLS0tLS0tLS0tLS0tLS0tLS0tLS0tLS0tLS0tLS0tLS0tLf/AABEIAOEA4QMBEQACEQEDEQH/xAAcAAEAAgMBAQEAAAAAAAAAAAAABgcDBAUBCAL/xAA/EAABAwICBgcFBwMFAAMAAAABAAIDBBEGIQUHEjFBURMiYXGBkaEyYpKisRQzQlJygsEjssJDU4PR0iTh8P/EABsBAQACAwEBAAAAAAAAAAAAAAADBAIFBgEH/8QAMxEAAgIBAwIEBQMDBQEBAAAAAAECAxEEBSExQRITUWEycZGhsQYigcHR4SMzQvDxYhT/2gAMAwEAAhEDEQA/ALxQBAEAQBAEAQBAEAQBAEAQBAEAQBAEAQBAEAQBAEAQBAEAQBAEAQBAEAQBAEAQBARTGuMY6Juwyz53Dqs4NH5n8hyG8+ZUkK/EbLbtunqpZfEV3/sVxS6wK9kge6USNvcxlrA0jkNkXb3/AFU/lROjnsullDwxWH6lv6A01FVwtmhORyc0+0x3FrhzVaUXF4OR1Omnp7HCZGcV4vqqCos+nZJTvt0bwXNdu6zScxtb8rZjxWcIKSNjoduq1df7Z4muqM+jNZFFLYSOdC4/nb1fjbcDxsjqkjC/ZdTX0XiXsSukrI5W7UUjXtPFrg4eYUbTRrJVyg8SWDOvDEIAgCAIAgCAIAgCAIAgCAIAgCAIAgCAIAgPLoCGY5xs2kBhgIdUEd7YgeLuZ5N8+2WuvxdTb7btktS/HPiH5KcqJ3SOc+Rxc5xu5xNySeJKsrjodjCuMIqMVhIxoZHZwtiGWhm6SPNpsJI+D2/w4cCsZxUilrtDDVV+F9ez/wC9i6P/AI2kqXhJFIO4tI/tc0qrzBnF/wCto7vSS/79Cl8U4dkoZujfmx1zHJbJ4/hw4hWoz8SOz0OuhqoZXD7o5dNUPjdtRPcx3Nri0+YWWM9S3OuFixJJ/MlGi9YldDYPe2ZvKRufg5tj53UbqizV37JprPh/a/Yl2i9aVO+wqI3xHmP6jfTreijdL7Gov2K6HNbTX0JfozTlNUC8E7H9gcNod7d48lG4tdTVW6a2r44tHQusSA9QBAEAQBAEAQBAEAQBAEAQBAEAQHhKAgOPcdCDap6VwM25794i7Bzf9OPJTV155ZvNs2p3PzLV+38/4Kle8kkuJJJJJJuSTvJJ3lWDrYxUVhdD8oehAEBIMH4nkoZbi7on26SPn7zfeHru5WwnBSRrtx0EdVDjiS6P+jLhr6Km0jTWJD45BtMe3e08HNPBw5d4KrpuLOQqst0d2Vw12KRxBoOWjmMUw7WPHsyN/M3+RwVqMlJZR22j1leqrU4fyvQ5i9LQQHoNjcZEbjxHcUPGk+Gd7ReM66CwZO5zR+GT+oPM5+RWDrizX3bVprescP1XBL9F61RkKqnI96I3+R27zKjdPoam/wDT8lzVLPsyYaLxhRVFhHO0OP4H9R3gHWv4KJwkjUXbfqKfig/45O4CsSmeoAgCAIAgCAIAgCAIAgCA8JQFbY9x7s7VPRO63syTA+zzbGeJ5u4d+6euvuzods2nx4tuXHZepVynOpwlwggCAIAgCAlGCMWuon7L7ugeeu3eWH87R9Rx71hOHi+Zqtz21amPij8S+/sWxpzREGkKcNJBa4bUcrbHZJGTmniOY4qtFuLOV0+os0luV16NFHaa0TLSyuhmFnDceD28HNPEFW1JNZR2+l1MNRWpw/8ADQXpYCAIehengaLmwFydwGZPgvDyUlFcvBLMOUWmG2+yNnY3k7qx/DLlbuCjk4dzUau3bpZ83Dft1+xbmH/tPQt+27HTZ36O+zbhft52yVaWM8HJ6jyvMfk58PudK68IT1AEAQBAEAQBAEAQHjnW3oCqseY86Tap6N1mZtkmH4ubYzy97jw5qxCvHLOn2vaMYtuXyX9yulMdGggCAIAgCAIAvQTLAGMDSOEM5Jp3Hf8A7Tj+Ie6eI8ed4rIeLlGl3XbFevMr+L8/5LKxTh6KvgsSA4DailGeyT9WniP/AKUEZeFnN6PWT0lmV07oqSvwVXxOLTTueODo+u09uWY8QFYVkWdbVu2lsjnxY+ZsUOr7SEm+JsY5yPA9G3PojtiiO3etLDo2/kiR0GqjjUVP7Y2f5O/8qN3+iNbb+oG/9uH1ZIqHV7o+LN0ZkI4yPJHi0WHosHZJmvs3fV2cKWPkbb9LaNoxsiSnit+FgbtfCwXXmJSIY0avUPOJM4tfrRpGZRRyynnYMb5uN/RZqll6vYtRL42l9yOV+tKqdlDFHGOZ2pD/AAPRZqldzYVbBUvjk39jjMx1pAP2/tBOfslrNg9haBu9Vl5cS49o0jj4fD/PcuXDmlRVU0U4FtttyL3s4Ehwv2EFVpLDwchqqHRdKt9jprErhAEAQBAEAQH4lkDQXOIAAuScgAN5JQ9SbeEVDjzHJqbwUri2Dc54yMvYOTPr3b7NdeOWdXtm1KrFtq/d2Xp/kgqlN8EAQBAEAQBAEAQBA3hZZf2B6WSKhp2TXDwzcd7QSS1p7Q0geCpzxng4DXzhPUzlDpk7M0rWNLnEBrQSSdwAzJKxSKqTbwivNJ61YwSKaB0nJ73bAPaAATbvsplT6m/p2CySTslj26ka0hrHr5LhjmRD3GAnzff6BSKqKNlVsmmh8WX/AN9iOV2laib76eSS/Bz3EfDew8lmopGwr0lFfwQS/g0wF6WAgCAIC3dUFbtUr4ic4pTYe68Bw+YOVe5c5OQ36rw6hS9V+OCfKE0gQBAEAQBAYaupZGxz5HBrWi7nE2AA4kpjJlGEptRistlM43xq+sJihuynB3bnS24u5N5N8+QtQr8PXqdftu1qheOzmX4IgpDdBDwIAgCAIAgCAID1rSSAASSbAAXJJ3ADiexDyUlFZbLZwHgUQWqKtoMu9ke8Rdp5v+nqq9lmeEclue6u5uur4fX1/wAG5pjWNSwTdEGukDTaR7CNlh4gfnI42XiqbWSGjZr7avM6eifc7eKojNQ1AYbl0Di23Hq7QHja3isI8SKejl5epg5dmj5+BV0+gBeAIAgCAIAgJ1qhrNirfGd0sXzRm49HO8lFcv2mi3+rNMZ+j/JcKrHJBAEAQBAauka+OCN0kzwxjRcuP0HM9i9Sz0M6qpWSUILLKUxni6SufstuyBp6rOLrbnP5nkOHerUIeE7Pbtsjpo+KXMvx8iMrM2gQBAEAQBAEAQBAZIIXPcGMaXOcbNaBckngAmcGM5xhFyk8JFw4HwS2kAmqLOnI72xDk3m7m7y7a07M8I4/cd0lqX4IcR/JwMeY829qno3WbukmB9rm2M8ubvJZ1192Xtr2jGLbl8l/crmymOkL6wPWdPQQOOZDOjd3x3Yfp6qpNYkcFuFXlama98/1KP0rSdDPLF/tyPZ4NJA9LK0nlHbaW3zKYz9UjVXpOEAQBAEAQHWwnW9DW08nASgHufdh9HFeTWY4Ke4Vebppx9vwfQoVI4EIAgCAICpNcU8n2iGM36MR7bRwL9ohx7wNnz7VYpXB1P6fhDwSl/yz9iv1MdCEAQBAEAQBAEAQGeipJJntjiYXvcbBo4/9DtRvBHbbCqLnN4SLlwdhGKgYZZS10xbd0hybGOLWX3DmePdkqs5uXCON3DcZ6ufhjxHsvUhuPMcGovT0pIhzD37jL2Dkz692+WuvHLNxtm1KrFt3xdl6f5IKpTfBAWvqcrbwTQk+xIHjukFvqw+ar3LnJye/1eG6M/VfgiutGj6Ove7hKxknjbYP9nqpKnmJtdkt8emUfR4IkpDbhAEAQBAEAvy3oGk1hn0doStE1PFKPxxtd4kAn1VKSwz51fX5dsoPs2bq8IggCAIDjYnw/FWwmOTJwzY8b2O5jmOY4rKMnFlrR6uems8cf59yidL6MlppXQzNs5vk4Hc5p4gq2n4lk7nT6iGogrIf+expr0nCAIAgCAIAgNvRejpaiVsUDS57uHADi5x4Ac0bS5ZDqNRCiDnN8F0Yaw5T6Nhc97m7ezeWZ2QAGZAv7LR6qrKTmzi9ZrbdZZhdOyK8xxjV1YTFCS2nB7nS24u5N5N8+QmhXhcnQ7btSoXjs5l+CHqQ3IQBATTVPW7FaYycpY3N/czrj0DlFcsxNJvtXi06n6P8nc1yUV208w4OdGf3AOb/AGHzWNL7FH9P24nOv2yVepzqQgCAIAgCAIC6dVVb0lCGk3MT3x+BO2PR9vBVrViRxW9VeDVN+vJMlEaoIAgCAh2KcWvoauFkjQaeRhLnAHba4OsXDmAC3K3FSQh4om00e3rVUzlF/uRuYnw9DpGAFrhtW2oZRmM8943tPEeK8jJxZFo9XZo7fbuiktIUMkEjopm7L2GxH0IPEHgVaTyjtqLoXQU4PhmsvSUIAgCAIDoaD0NNVyiKBtzvc4+yxv5nHgPUryUkkVtXqq9NDxz+nqXPobRFLounc4uAsLyzO3uI/jgGj6lVpSc2cZqNRdrrfwvQq/GmL5K52y27IGnqs4uI3OfzPIcFPXWonT7dtsNMvFLmb+xGFIbYLw8CAIDoYeregqoJb22JWEn3SbO+UleSWUVtbV5mnnD2Lk1jUXS6Pm5sAkH7CCfluqtTxI47arfL1UH68fUotWzuggCAIAgCAICxtTdbaSeEn2mtkA7WnZd/c1Q3LjJzf6gq4hZ/BaqrnMhAEAQFfa4aLap4pQM45dk/pkB/ya3zU1L5wb3YLfDe4eq/BGMAYxNI4QTm9O45H/ZJ4j3TxHDfzWdkM8o2W67Yrl5ta/cvuT7GeFo6+IPjIEzReOTg4b9lxG9p58N/O8UJuPBodv189JPD+Huik6mnfG90cjS17Tsuad4IVpcnb12RsipxeUzEhkEAQHWw5h+atl6OIWA9uQjqsHM8zyHFeSko9SnrdbDSw8UuvZFx0tNSaJpTnssGbnnN8rv5ceACqvM2cdOy/XXerf0RUuLcUy10l3dWJp/pxcB7zubj6bhzNmEFE63QbdDSx9ZPqzgLI2AQBAEAQAheg+gtCTCroYy7MSwBru8t2Xet1SlxI+faiLo1Eku0igJoSxzmO9pji097TY+oVw7+ElOKku/J+EMggCAIAgCAkWr6u6GvgN7B5MR/5BZo+LZWFizE1u71eZpJe3JfKqHDhAEAQHDxtQdNQ1DALnoy4fqj649WrODxIt6C3ytRCXv+SgFbPoBPNXeM+gIpql39Em0byfuifwn3D6d26KyvPKOe3ba1NO6pc916+5LseYQbWM6WEAVDRkcrSN/I4/Q/wo65+Hhmq23cXpZeGXwv7FLyxlpLXAtc0kEEWII3gjgVZ9zs4yUkpR5TPyhkd3CeGJa6SzOrG0/1JbZN91vN1uHn24zmoooa/Xw0seeZdl/Ut2aak0VSjLZY3c0Zvlf/AJONt/DsAVZZmzkYxv19/q39incS4imrZNuXJo9iMG7WA/U8yrMYqPQ7DRaGvSwxHr3Zx1kXQgCAIAgCAIC49Udbt0bozvilc0fpfZ49XOHgq1y/ccdvlXh1Pi9Vkr3WBRdFXzjg9wkH/ILn5tpTVvMUb/abfM0sfbj6EeWZsggCAIAgCAyQTFjmvbvY4PHe0gj1CPlGFkPHBxfdM+kqWcPY17dzmhw7nC4+qpNHzmS8Mmn2Mq8PAgCA/L2ggg7iLHxQJ45Pm/SVKYZpIj/pyPZ8LiB6K8nlH0TT2eZVGfqkzWXpMWRq5xps7NJVO6ps2KQndyjcTw5Hw5KCyvujmt22vrdUvmv6nbx7gn7X/Wptls4ycDk2Udp4OHA+B7MIWY4ZS2zdHpn4LOY/giOg9XFXJIPtLehjB6x2mue4cmhpPmfVSStXY22p3ymMMVcssPSmk6XRVM0BoaALRxN9p54+uZcVCk5s5+ii/XXer7v0KZ09pqaslMsxudzWj2WN/K0fzxVqMVFcHZ6TSV6aHhgvm/U5q9LIQBAEAQBAEAQE/wBT1bs1E0R/1Iw4d8Z/6efJRXLjJz/6gqzXGz0ePqZdclFaWCYD2mOjJ7WEOb6Od5Lyl8YMP0/b+2dfyZXamOjCAIAgCAIAvQXrq6reloISd7AYz+wkD0sqlixI4XdKvL1U168/UkyjNeEAQAoCj9Z1F0ekJDwlayQeI2D6sJ8VaqeYnabJb49Kl6NoiikNsCgLk1W6efUQOilcXPgLRtHMuY4HZueJGyRfsCrWxw8nG7zpI02qUOkibKI05AdYGC56yUTwPaSGBhjeS3cXG7TmM77jbdvU1diisM3m17nXpouFi79UVrpPQFVT/fwPYPzW2m/G249VOpJnSU66i74Jr8HNBXpaCAIAgCAIAgCA7mCa3oa6nfewMgYe6TqfVwPgsZrMWUNzq8zSzXtn6Fma1qLpKEvAzikY/wAD1D6Ov4KCp4kc1stvg1SXqsFLqydoEAQBAEAQBAWjqarbsqIT+FzZB+8bJ9WDzUF67nLfqCrE4Weqx9CylAc8EAQAoCstctFlTzDgXRHxAc3+1ynpfVHR/p+3906/5KxU504XoLS1N0REdRMdz3NjH/GCSfnt4Ktczlv1BanZGtdufqbWOMfOpZTBTMa57QC9z7lrdoXDQ0EEmxB38QkK8rLItt2n/wDRDzLHhdjmaL1quGVVTg83RG3yO/8ASydPoWbv0/3qn/DJfozGtBPk2drSctmTqHu62R8CVE65I1N226mnlxfzXJ+9J4RoanN8DLn8bOo7vu3f43RTlExp1+po+GT+TIjpTVVvNLUftlH+bf8ApSK71NtR+oJdLY/Qh+lMH11Pcvgc5o/FH/Ub8uY8QFKpxZt6N00t3SWH7nCWRsE8rIQBAEAQHocRmDYjMHkRmCh5KKkmmfQVS0VlC626eC473suPIlU1+2R8/g3p9Qv/AJf4Z8+BXT6CnnlBeAIAgCAIAgJfqsrOjr2t4SxvZ4gbY/tPmo7VmJp98r8Wm8Xoy7FVONCAIAgIrrLoul0fLYZx7Mo/YRtfKXKSp4kbHabfL1Uffj6lHK2dyCUBfuEqEUlDEx+RbHtydjndd3lcjwVObzI4HW2u/USku7wvwUZpStM80kzt8j3P7gTkPAWHgrSWFg7jTVKqqMPRGqvSYIDf0bpmop/uJns7A7q/CcvReOKfUr3aOi744p/n6kt0XrQqWZTxslHMXjf/ACD5BRuldjUX7BVLmuTX3JfovWLQy2D3Ohdykbl8TbjzsonVJdDU3bNqq+i8S9jr1eiaKtbtPjimB3PFifB7c/VY5lEpwv1GneE2vYiulNVkDs6aZ8R/K4dI3+HDzKkVz7m1p366P+4k/sRDSmAK6G5EYlbzjNz8JsfK6lVkWbejedNZw34X7kZmjcwlr2lrhva4FpHgc1n1NnCcZrMXk/CGQQF3asK3pKCMHfE50Z8DdvyuCq2rEjiN3q8Gql78lTYrouhrKiPgJXEfpf12+jgrMHmKZ1egt83TQl7fjg5S9LgQBAEBmpKWSU2ijfIeTGucflCNpEdl1dazNpfNkhoMA6Ql/wBERjnI4N9Bc+iwdkUa+3edLX0efkTvBeA/sknTzSB8gBDQ0HZZfebnMm2XDeoZ2eJYRotx3Z6mPlxWETlRGmCAIAgMFfTCWN8btz2OYe5wI/lep4ZnXNwkpLsfNskZaS129pLT3tNj6hXT6LCSlFSXc6mFNHfaKuGIi4Lw536WdZ1+8C3isZPCyVdwu8nTyn7cfyW1rJ0l0FDIAbOltC3999r5A5V61mRye00ebqo56LllHq2dwF4AgCAIAgM1JVSRO2onujdzY4tPjbejWepHZTXYsTSfzJTovWNXRWEhbM33xZ3xNt6gqN1RZqrtk08/hzH8Ev0XrQpX2E7Hwnn94zzbn8qjdL7Gou2K+HwNS+zJKyairmWvDO3l1XEeBzCj/dE1zjqNNLPMWcDSmrOjkuYS+F3unaZ8Lv4IWaua6l+je9RXxLEl7kP0pq0rI84iydvYdh/wuy+ZSq2L6m3o32ifE04/cl2q/Q9TTRTCojMYe9pa0kE5CzjkTbgPBRWyUuhqN51NN9kXW84XJwta2H5TMKqNhcxzA1+yCS1zb2JA4EEC/urOqSxgv7Jra41umbw85RC6HQNVN91Tyu7dghvxOsPVSuSXc3Nmu09fxTRI6DVnWvsZDHEPecXO8mgj1WDtia63fdPH4U39iR6P1VQixnnkeeTQ1jfW59VG7n2Ndbv90vgil9yR0GC6CH2aZjiOL7yH57rB2Sfc11u5aqz4pv8Ajg3avTFJTC0k0UYG5u00HwaM14oyZFDT32v9sWzDoTEtNVveyncX9GAXHYcG53tYkZ7klFx6nuo0dunSdixk7SxKwQBAEAQAoCg8d0XQ187QLBz+kHdIA4+pPkrlbzE7rarfM0sH6cfQk2p3Rt5Jqgj2AImntd1n+gb8SjufGDWfqC/iNS+f9jHrg0ltTRQA5RsL3fqfkPJrfmSlcZMtgoxCVr78FfKY6EIAgCAIAgCAIAgPWEgggkEbiDYjuIQ8lFSWGskh0XjeugsBMZGj8MvX+Y9b1WDrizXXbRpbf+OH7Ew0XrVYbCpgc33oyHDv2XWI8yo3S+xqLtgsXNUs/PgneiNKw1MYlgeHsOV8wQRvBBzB7CoZLHU0d1E6ZuE1hm45wAuTZeEXyI/pDGlBDk6oa4jLZZeQ93UBt4rNVyZdq23VW9IP+eCOV+tWEXEFPI/teWsHpcrNUvubKvYLXzOSX3I7pDWZWvyjEcQ7G7TvN2XopFTFGwq2HTx+Nt/Yjtdp6rm+9qZXdm2Q34W2Hos1GK6I2NWh09fwwRnwthuWtl2IhstH3khGTB/LuQXkpqJHrddXpIZfXsi79A6EhpIhFA2w3uP4nu4uceJVWUnJ5ZxWp1Nmon47GdNYkAQBAEAQAoCpdcdFszwzDc+MsPfGbj0efJWKXxg6n9P25hKv0efqTTV9o77PQRA5OeOld3vzF+5uyPBRWPMjS7nf52pk18kU3iPSP2mqmmvcPedn9A6rPlAVqKwjsdFT5NEYexzl6WggCAIAgCAIAgCAIAgCAtDUzE/YqXX6hdG0D32hxcfJzFBcct+oJR8yC74NPWviF5k+yRusxrQ6Wx9pzsw09gFjbjccl7VHjJLseij4fPkue39yu1MdIEAQEgwjhWWukyuyFp68v+LObvpx5HCc/Ca7X7jDSx45l2Rd2itGRU0bYoGBrG8OJPEuPEnmqrbfU4u66d03Oby2bq8IggCAIAgCAICP4xw0K+OOMu2diVrybXu2xD2jkSD5gLOEvCXdDrJaWbkl1WDzHFf9moZXNyJZ0bO9/VFu4EnwSCzI92+nz9TGL9csoUBWzvAgCAIAgCAIAgCAIAgCAFAXvgWgFNQRB2RLTK+/Av62fcLDwVSbzI4TcbfO1UmvXCKU0xXmonlmP+o9zh2AnqjwbYeCtRWEdppafJpjD0Rpr0nCAlGC8HvrXbb7sp2nrP4vI/Cz+Tw792E5+E1O5bnHTLwx5l+C66GiZDG2OJoaxosGjcP/ANzVVvPU46yyVknKTy2bC8MAgCAIAgCAIAgCArDXLXn+hAN3Wld2kdVv1f6Keldzo/0/Vlzs/grNTnThAEAQBAEAQBAEAQBAEB0NAaP+0VMMPB7wHfpGb/lBXknhMray7yaJT9FwXHrF0j9noJNnIyWhbw9vI27mh3kq1azI4/a6fO1UU+3JRitHchegmWBsEuqyJpwW04OQ3Ol7Byb73HhzUVlmOEaTct1VGa6/i/H+S5KeBrGhjGhrWgANAsABwAVXOTkZScn4pdTKh4EAQBAEAQBAEAQBARfG2EW17WEP6OWO4a61wQbXa4eG/gs4T8Jsdv3CWkk+Mp9UVnpTAVfDc9F0rR+KI7XymzvRWFZFnS0bxprOG8P3I1LGWnZeC1w3tcCCPA5rM2UZxmsxeT8oZBAEAQBAEAQBAEAQE/1P6O26iWcjKJgY39Um+3c1vzKK58YOf3+/FcavXn6GXXDpLalhpwcmNMjh7z8m+QDviXlK4yY/p+jEZWvvwV2pjoie4DwIZ9meraRDvZGcjL2u5M7OPdvissxwjn9z3ZQzVS+e79PkW4xgAAAsALADIADgFWOVfPLP0gCAIAgCAIAgCAIAgCAIBZAalfoyCcbM8TJB7zQfK+5eptEld1lbzCTREdKasaSS5hc+E8gdtnk7PyIUiufc2tG+aiv4sSIfpTVtWxXMWxO33Tsv+F2XkSpY2xZt6d908+J5i/sRStopYTszRvjPJ7S3yvvUiafQ2td9dqzCSfyMC9JgvDwIAgCAIAgLv1Z6O6GhYSLOlJld+7Jvyhqq2vMjiN3v83Uyx0XBUmJ9I/aaqaa92uedn9Deq30APirMVhI6zQ0+Rp4w9uSa4BwHtbNRWsy3xwu48nSD6N8+Shss7I0m6bt1qpfzf9i0QFAc2eoAgCAIAgCAIAgCAIAgCAIAgCAIBZAYp6djxsva1wPBwBHkUyZRk4vMXgi2lNXdDNctjMLucRsPgN2+ikVskbGjeNTV3yvfkiOlNVtQy5p5WSj8rrsd55g+ilVy7m3o3+t8Wxa+XJD9JaFqaf7+B8fvFt2/GLtPmpFJPobenWUXfBJM0FkWgvDwIDZ0dRmeWOFu+R7Wd20QCfAXPgjeEQ6i1VVSm+yL5xFtxUUop2EubCWsa0EndsiwGZsM/BU48y5OE03hnqI+Y+G+SJYCwH0ezUVjbvFiyI7mcnP5u7OHfuksszwja7nu3mf6VPw936li2UJoT1AEAQBAEAQBAEAQBAEAQBAEAQBAEAQBAEAQHjmg5EZICPaUwXQ1Fy+BrXH8UfUd8uR8Qs1OSLtG5amn4ZP+eSH6U1VOFzS1F/clH+bf/KlV3qbin9QdrY/yiI6SwlXQe3TvI/MwdI0/DcjxAUinF9DbU7npreksfPglWrPCkwnFTURujawHYDwWuc5wtfZOYABO/mo7JrGEavedwrlX5NbznrjoWqq5zB6gCAIAgCAIAgCAIAgCAIAgCAIAgCAIAgCAIAgCAIAgCAIAgCAIAgCAIAgCAIAgCAIAgCAIAgCAIAgCAIAgCAIAgCAIAgCAIAgCAIAgCAIAgCAIAgCAID//2Q==;" vertex="1" parent="1">
          <mxGeometry x="640" y="439.05" width="42.5" height="42.5" as="geometry" />
        </mxCell>
        <mxCell id="4zsh_qOHGE946CQNxaqM-74" value="" style="endArrow=classic;startArrow=classic;html=1;rounded=0;entryX=0;entryY=0.5;entryDx=0;entryDy=0;" edge="1" parent="1" target="4zsh_qOHGE946CQNxaqM-72">
          <mxGeometry width="50" height="50" relative="1" as="geometry">
            <mxPoint x="600" y="462.35" as="sourcePoint" />
            <mxPoint x="915" y="669.2" as="targetPoint" />
          </mxGeometry>
        </mxCell>
        <mxCell id="4zsh_qOHGE946CQNxaqM-75" value="" style="endArrow=classic;startArrow=classic;html=1;rounded=0;entryX=0.85;entryY=0.416;entryDx=0;entryDy=0;entryPerimeter=0;exitX=0;exitY=1;exitDx=0;exitDy=0;" edge="1" parent="1" source="4zsh_qOHGE946CQNxaqM-27" target="4zsh_qOHGE946CQNxaqM-62">
          <mxGeometry width="50" height="50" relative="1" as="geometry">
            <mxPoint x="700" y="604.35" as="sourcePoint" />
            <mxPoint x="640" y="692.35" as="targetPoint" />
          </mxGeometry>
        </mxCell>
        <mxCell id="4zsh_qOHGE946CQNxaqM-77" value="" style="rounded=0;whiteSpace=wrap;html=1;fillColor=#dae8fc;strokeColor=#6c8ebf;" vertex="1" parent="1">
          <mxGeometry x="129" y="512.35" width="140" height="100" as="geometry" />
        </mxCell>
        <mxCell id="4zsh_qOHGE946CQNxaqM-78" value="" style="outlineConnect=0;dashed=0;verticalLabelPosition=bottom;verticalAlign=top;align=center;html=1;shape=mxgraph.aws3.android;fillColor=#8CC64F;gradientColor=none;" vertex="1" parent="1">
          <mxGeometry x="155.46999999999997" y="542.35" width="56.92" height="40" as="geometry" />
        </mxCell>
        <mxCell id="4zsh_qOHGE946CQNxaqM-79" value="" style="aspect=fixed;sketch=0;html=1;dashed=0;whitespace=wrap;verticalLabelPosition=bottom;verticalAlign=top;fillColor=#2875E2;strokeColor=#ffffff;points=[[0.005,0.63,0],[0.1,0.2,0],[0.9,0.2,0],[0.5,0,0],[0.995,0.63,0],[0.72,0.99,0],[0.5,1,0],[0.28,0.99,0]];shape=mxgraph.kubernetes.icon2;kubernetesLabel=1;prIcon=api" vertex="1" parent="1">
          <mxGeometry x="222.32999999999998" y="532.35" width="41.67" height="40" as="geometry" />
        </mxCell>
        <mxCell id="4zsh_qOHGE946CQNxaqM-80" value="&lt;span style=&quot;color: rgba(0, 0, 0, 0); font-family: monospace; font-size: 0px; text-align: start;&quot;&gt;%3CmxGraphModel%3E%3Croot%3E%3CmxCell%20id%3D%220%22%2F%3E%3CmxCell%20id%3D%221%22%20parent%3D%220%22%2F%3E%3CmxCell%20id%3D%222%22%20value%3D%22%22%20style%3D%22aspect%3Dfixed%3Bsketch%3D0%3Bhtml%3D1%3Bdashed%3D0%3Bwhitespace%3Dwrap%3BverticalLabelPosition%3Dbottom%3BverticalAlign%3Dtop%3BfillColor%3D%232875E2%3BstrokeColor%3D%23ffffff%3Bpoints%3D%5B%5B0.005%2C0.63%2C0%5D%2C%5B0.1%2C0.2%2C0%5D%2C%5B0.9%2C0.2%2C0%5D%2C%5B0.5%2C0%2C0%5D%2C%5B0.995%2C0.63%2C0%5D%2C%5B0.72%2C0.99%2C0%5D%2C%5B0.5%2C1%2C0%5D%2C%5B0.28%2C0.99%2C0%5D%5D%3Bshape%3Dmxgraph.kubernetes.icon2%3BkubernetesLabel%3D1%3BprIcon%3Dapi%22%20vertex%3D%221%22%20parent%3D%221%22%3E%3CmxGeometry%20x%3D%22303.33%22%20y%3D%22300%22%20width%3D%2241.67%22%20height%3D%2240%22%20as%3D%22geometry%22%2F%3E%3C%2FmxCell%3E%3C%2Froot%3E%3C%2FmxGraphModel%3E&lt;/span&gt;&lt;span style=&quot;color: rgba(0, 0, 0, 0); font-family: monospace; font-size: 0px; text-align: start;&quot;&gt;%3CmxGraphModel%3E%3Croot%3E%3CmxCell%20id%3D%220%22%2F%3E%3CmxCell%20id%3D%221%22%20parent%3D%220%22%2F%3E%3CmxCell%20id%3D%222%22%20value%3D%22%22%20style%3D%22aspect%3Dfixed%3Bsketch%3D0%3Bhtml%3D1%3Bdashed%3D0%3Bwhitespace%3Dwrap%3BverticalLabelPosition%3Dbottom%3BverticalAlign%3Dtop%3BfillColor%3D%232875E2%3BstrokeColor%3D%23ffffff%3Bpoints%3D%5B%5B0.005%2C0.63%2C0%5D%2C%5B0.1%2C0.2%2C0%5D%2C%5B0.9%2C0.2%2C0%5D%2C%5B0.5%2C0%2C0%5D%2C%5B0.995%2C0.63%2C0%5D%2C%5B0.72%2C0.99%2C0%5D%2C%5B0.5%2C1%2C0%5D%2C%5B0.28%2C0.99%2C0%5D%5D%3Bshape%3Dmxgraph.kubernetes.icon2%3BkubernetesLabel%3D1%3BprIcon%3Dapi%22%20vertex%3D%221%22%20parent%3D%221%22%3E%3CmxGeometry%20x%3D%22303.33%22%20y%3D%22300%22%20width%3D%2241.67%22%20height%3D%2240%22%20as%3D%22geometry%22%2F%3E%3C%2FmxCell%3E%3C%2Froot%3E%3C%2FmxGraphModel%3E&lt;/span&gt;" style="points=[];aspect=fixed;html=1;align=center;shadow=0;dashed=0;fillColor=#FF6A00;strokeColor=none;shape=mxgraph.alibaba_cloud.nodejs_performance_platform;" vertex="1" parent="1">
          <mxGeometry x="170" y="518.6499999999999" width="29.86" height="33.7" as="geometry" />
        </mxCell>
        <mxCell id="4zsh_qOHGE946CQNxaqM-81" value="" style="endArrow=classic;startArrow=classic;html=1;rounded=0;exitX=1.007;exitY=0.92;exitDx=0;exitDy=0;entryX=0.025;entryY=0.575;entryDx=0;entryDy=0;entryPerimeter=0;exitPerimeter=0;" edge="1" parent="1" source="4zsh_qOHGE946CQNxaqM-77" target="4zsh_qOHGE946CQNxaqM-62">
          <mxGeometry width="50" height="50" relative="1" as="geometry">
            <mxPoint x="319" y="502.35" as="sourcePoint" />
            <mxPoint x="369" y="452.35" as="targetPoint" />
          </mxGeometry>
        </mxCell>
        <mxCell id="4zsh_qOHGE946CQNxaqM-82" value="" style="endArrow=classic;startArrow=classic;html=1;rounded=0;exitX=1;exitY=0.25;exitDx=0;exitDy=0;entryX=0.025;entryY=0.582;entryDx=0;entryDy=0;entryPerimeter=0;" edge="1" parent="1" source="4zsh_qOHGE946CQNxaqM-5" target="4zsh_qOHGE946CQNxaqM-8">
          <mxGeometry width="50" height="50" relative="1" as="geometry">
            <mxPoint x="270" y="322.35" as="sourcePoint" />
            <mxPoint x="320" y="322.35" as="targetPoint" />
          </mxGeometry>
        </mxCell>
        <mxCell id="4zsh_qOHGE946CQNxaqM-83" value="" style="shape=image;verticalLabelPosition=bottom;labelBackgroundColor=default;verticalAlign=top;aspect=fixed;imageAspect=0;image=https://blogger.googleusercontent.com/img/b/R29vZ2xl/AVvXsEgVuiKKgpaK0Ci_04jB-51P20oyTzDiikFWAF5FkzbH13uNFovkdyABwqFPQcmYIMjAFWw73yHXcWH7FhJEcHeiQYYoj0jUfgY1ohyphenhyphenJFVIC4EFqrtBO2oFzFtdKFvUPD97M6ej7Il_z-GbO/s1600/Screen+Shot+2020-05-15+at+9.17.09+PM.png;imageBorder=default;strokeWidth=1;" vertex="1" parent="1">
          <mxGeometry x="199.86" y="412.35" width="80.71" height="60" as="geometry" />
        </mxCell>
        <mxCell id="4zsh_qOHGE946CQNxaqM-86" value="" style="endArrow=classic;startArrow=classic;html=1;rounded=0;exitX=0.5;exitY=0;exitDx=0;exitDy=0;" edge="1" parent="1" source="4zsh_qOHGE946CQNxaqM-83">
          <mxGeometry width="50" height="50" relative="1" as="geometry">
            <mxPoint x="170" y="432.35" as="sourcePoint" />
            <mxPoint x="240" y="382.35" as="targetPoint" />
          </mxGeometry>
        </mxCell>
        <mxCell id="4zsh_qOHGE946CQNxaqM-87" value="" style="endArrow=classic;startArrow=classic;html=1;rounded=0;" edge="1" parent="1" target="4zsh_qOHGE946CQNxaqM-83">
          <mxGeometry width="50" height="50" relative="1" as="geometry">
            <mxPoint x="240" y="502.35" as="sourcePoint" />
            <mxPoint x="240" y="482.35" as="targetPoint" />
          </mxGeometry>
        </mxCell>
        <mxCell id="4zsh_qOHGE946CQNxaqM-89" value="" style="endArrow=classic;startArrow=classic;html=1;rounded=0;entryX=1;entryY=0.5;entryDx=0;entryDy=0;" edge="1" parent="1" target="4zsh_qOHGE946CQNxaqM-83">
          <mxGeometry width="50" height="50" relative="1" as="geometry">
            <mxPoint x="440" y="442" as="sourcePoint" />
            <mxPoint x="183.29283999999979" y="431.85" as="targetPoint" />
          </mxGeometry>
        </mxCell>
        <mxCell id="4zsh_qOHGE946CQNxaqM-91" value="" style="endArrow=classic;startArrow=classic;html=1;rounded=0;entryX=1;entryY=0.5;entryDx=0;entryDy=0;exitX=-0.036;exitY=0.333;exitDx=0;exitDy=0;exitPerimeter=0;" edge="1" parent="1" source="4zsh_qOHGE946CQNxaqM-27" target="4zsh_qOHGE946CQNxaqM-72">
          <mxGeometry width="50" height="50" relative="1" as="geometry">
            <mxPoint x="570" y="692.35" as="sourcePoint" />
            <mxPoint x="620" y="642.35" as="targetPoint" />
          </mxGeometry>
        </mxCell>
        <mxCell id="4zsh_qOHGE946CQNxaqM-93" value="" style="endArrow=none;html=1;rounded=0;" edge="1" parent="1">
          <mxGeometry width="50" height="50" relative="1" as="geometry">
            <mxPoint x="600" y="502.35" as="sourcePoint" />
            <mxPoint x="600" y="422.35" as="targetPoint" />
          </mxGeometry>
        </mxCell>
        <mxCell id="4zsh_qOHGE946CQNxaqM-94" value="" style="sketch=0;points=[[0,0,0],[0.25,0,0],[0.5,0,0],[0.75,0,0],[1,0,0],[0,1,0],[0.25,1,0],[0.5,1,0],[0.75,1,0],[1,1,0],[0,0.25,0],[0,0.5,0],[0,0.75,0],[1,0.25,0],[1,0.5,0],[1,0.75,0]];outlineConnect=0;fontColor=#232F3E;fillColor=#7AA116;strokeColor=#ffffff;dashed=0;verticalLabelPosition=bottom;verticalAlign=top;align=center;html=1;fontSize=12;fontStyle=0;aspect=fixed;shape=mxgraph.aws4.resourceIcon;resIcon=mxgraph.aws4.fsx_for_windows_file_server;" vertex="1" parent="1">
          <mxGeometry x="-290" y="283.35" width="78" height="78" as="geometry" />
        </mxCell>
        <mxCell id="4zsh_qOHGE946CQNxaqM-95" value="" style="sketch=0;points=[[0,0,0],[0.25,0,0],[0.5,0,0],[0.75,0,0],[1,0,0],[0,1,0],[0.25,1,0],[0.5,1,0],[0.75,1,0],[1,1,0],[0,0.25,0],[0,0.5,0],[0,0.75,0],[1,0.25,0],[1,0.5,0],[1,0.75,0]];outlineConnect=0;fontColor=#232F3E;fillColor=#7AA116;strokeColor=#ffffff;dashed=0;verticalLabelPosition=bottom;verticalAlign=top;align=center;html=1;fontSize=12;fontStyle=0;aspect=fixed;shape=mxgraph.aws4.resourceIcon;resIcon=mxgraph.aws4.fsx_for_windows_file_server;" vertex="1" parent="1">
          <mxGeometry x="940" y="302" width="78" height="78" as="geometry" />
        </mxCell>
        <mxCell id="4zsh_qOHGE946CQNxaqM-96" value="&lt;font style=&quot;font-size: 9px;&quot;&gt;Node.js API Server&lt;/font&gt;" style="text;strokeColor=none;fillColor=none;align=left;verticalAlign=middle;spacingLeft=4;spacingRight=4;overflow=hidden;points=[[0,0.5],[1,0.5]];portConstraint=eastwest;rotatable=0;whiteSpace=wrap;html=1;" vertex="1" parent="1">
          <mxGeometry x="135" y="592.35" width="105" height="17.65" as="geometry" />
        </mxCell>
        <mxCell id="4zsh_qOHGE946CQNxaqM-97" value="&lt;font style=&quot;font-size: 9px;&quot;&gt;Node.js API Server&lt;/font&gt;" style="text;strokeColor=none;fillColor=none;align=left;verticalAlign=middle;spacingLeft=4;spacingRight=4;overflow=hidden;points=[[0,0.5],[1,0.5]];portConstraint=eastwest;rotatable=0;whiteSpace=wrap;html=1;" vertex="1" parent="1">
          <mxGeometry x="129" y="353.52" width="105" height="17.65" as="geometry" />
        </mxCell>
        <mxCell id="4zsh_qOHGE946CQNxaqM-98" value="&lt;h3&gt;&lt;font style=&quot;font-weight: normal;&quot;&gt;Monitoring&lt;/font&gt;&lt;/h3&gt;" style="text;strokeColor=none;fillColor=none;align=left;verticalAlign=middle;spacingLeft=4;spacingRight=4;overflow=hidden;points=[[0,0.5],[1,0.5]];portConstraint=eastwest;rotatable=0;whiteSpace=wrap;html=1;fontSize=10;fontFamily=Times New Roman;" vertex="1" parent="1">
          <mxGeometry x="740" y="510" width="110" height="30" as="geometry" />
        </mxCell>
        <mxCell id="4zsh_qOHGE946CQNxaqM-99" value="Instance_1" style="text;strokeColor=none;fillColor=none;align=left;verticalAlign=middle;spacingLeft=4;spacingRight=4;overflow=hidden;points=[[0,0.5],[1,0.5]];portConstraint=eastwest;rotatable=0;whiteSpace=wrap;html=1;fontSize=9;" vertex="1" parent="1">
          <mxGeometry x="120" y="247.65" width="70" height="14.7" as="geometry" />
        </mxCell>
        <mxCell id="4zsh_qOHGE946CQNxaqM-101" value="Prometheus" style="text;strokeColor=none;fillColor=none;align=left;verticalAlign=middle;spacingLeft=4;spacingRight=4;overflow=hidden;points=[[0,0.5],[1,0.5]];portConstraint=eastwest;rotatable=0;whiteSpace=wrap;html=1;fontSize=9;" vertex="1" parent="1">
          <mxGeometry x="311.65" y="315.5" width="57.35" height="17.65" as="geometry" />
        </mxCell>
        <mxCell id="4zsh_qOHGE946CQNxaqM-102" value="Instance_2" style="text;strokeColor=none;fillColor=none;align=left;verticalAlign=middle;spacingLeft=4;spacingRight=4;overflow=hidden;points=[[0,0.5],[1,0.5]];portConstraint=eastwest;rotatable=0;whiteSpace=wrap;html=1;fontSize=8;" vertex="1" parent="1">
          <mxGeometry x="120" y="487.34999999999997" width="70" height="14.7" as="geometry" />
        </mxCell>
        <mxCell id="4zsh_qOHGE946CQNxaqM-106" value="Prometheus" style="text;strokeColor=none;fillColor=none;align=left;verticalAlign=middle;spacingLeft=4;spacingRight=4;overflow=hidden;points=[[0,0.5],[1,0.5]];portConstraint=eastwest;rotatable=0;whiteSpace=wrap;html=1;fontSize=9;" vertex="1" parent="1">
          <mxGeometry x="304" y="622.35" width="60" height="20" as="geometry" />
        </mxCell>
        <mxCell id="4zsh_qOHGE946CQNxaqM-108" value="oracle cloud infrastructure Plugin - Instance Monitor" style="text;strokeColor=none;fillColor=none;align=left;verticalAlign=middle;spacingLeft=4;spacingRight=4;overflow=hidden;points=[[0,0.5],[1,0.5]];portConstraint=eastwest;rotatable=0;whiteSpace=wrap;html=1;fontSize=9;" vertex="1" parent="1">
          <mxGeometry x="519.9999999999999" y="230.00000000000006" width="124.45" height="27.65" as="geometry" />
        </mxCell>
        <mxCell id="4zsh_qOHGE946CQNxaqM-109" value="&lt;font style=&quot;font-size: 8px;&quot;&gt;Oracle Load Balancer&lt;/font&gt;" style="text;strokeColor=none;fillColor=none;align=left;verticalAlign=middle;spacingLeft=4;spacingRight=4;overflow=hidden;points=[[0,0.5],[1,0.5]];portConstraint=eastwest;rotatable=0;whiteSpace=wrap;html=1;" vertex="1" parent="1">
          <mxGeometry x="110" y="427.35" width="90" height="16.15" as="geometry" />
        </mxCell>
        <mxCell id="4zsh_qOHGE946CQNxaqM-110" value="Oracle instance metrics" style="text;strokeColor=none;fillColor=none;align=left;verticalAlign=middle;spacingLeft=4;spacingRight=4;overflow=hidden;points=[[0,0.5],[1,0.5]];portConstraint=eastwest;rotatable=0;whiteSpace=wrap;html=1;fontSize=9;" vertex="1" parent="1">
          <mxGeometry x="260.22" y="187.04999999999998" width="120" height="17.65" as="geometry" />
        </mxCell>
        <mxCell id="4zsh_qOHGE946CQNxaqM-112" value="&lt;font style=&quot;font-size: 9px;&quot;&gt;Influx DB Cloud&lt;/font&gt;" style="text;strokeColor=none;fillColor=none;align=left;verticalAlign=middle;spacingLeft=4;spacingRight=4;overflow=hidden;points=[[0,0.5],[1,0.5]];portConstraint=eastwest;rotatable=0;whiteSpace=wrap;html=1;" vertex="1" parent="1">
          <mxGeometry x="621.1" y="481.55" width="98.9" height="20" as="geometry" />
        </mxCell>
      </root>
    </mxGraphModel>
  </diagram>
</mxfile>
